<svg width="238" height="159" viewBox="0 0 238 159" fill="none" xmlns="http://www.w3.org/2000/svg">
<path d="M47.6094 113.554H84.9287V88.8855H47.6094V113.554ZM76.4439 92.4188C76.9385 91.9242 77.7381 91.9242 78.2327 92.4188L81.3953 95.5815C81.89 96.0761 81.89 96.8756 81.3953 97.3703C81.1487 97.6169 80.8248 97.7409 80.5009 97.7409C80.1771 97.7409 79.8532 97.6169 79.6065 97.3703L76.4439 94.2076C75.9493 93.713 75.9493 92.9134 76.4439 92.4188ZM70.1186 92.4188C70.6132 91.9242 71.4128 91.9242 71.9074 92.4188L81.3953 101.907C81.89 102.401 81.89 103.201 81.3953 103.696C81.1487 103.942 80.8248 104.066 80.5009 104.066C80.1771 104.066 79.8532 103.942 79.6065 103.696L70.1186 94.2076C69.624 93.713 69.624 92.9134 70.1186 92.4188Z" fill="#686868"/>
<path d="M131.102 126.205H124.777V77.691C128.555 75.5037 131.102 71.4265 131.102 66.747C131.102 63.573 121.614 41.4458 121.614 41.4458H39.3855C39.3855 41.4458 29.8976 63.573 29.8976 66.747C29.8976 71.4265 32.4454 75.5037 36.2229 77.691V126.205H29.8976C28.8501 126.205 28 127.055 28 128.102C28 129.15 28.8501 130 29.8976 130H98.2108H116.554H131.102C132.15 130 133 129.15 133 128.102C133 127.055 132.15 126.205 131.102 126.205ZM88.7229 114.187C88.7229 115.931 87.3048 117.349 85.5602 117.349H46.9759C45.2326 117.349 43.8133 115.931 43.8133 114.187V88.253C43.8133 86.5085 45.2326 85.0904 46.9759 85.0904H85.5602C87.3048 85.0904 88.7229 86.5085 88.7229 88.253V114.187ZM105.801 107.861H102.639C101.591 107.861 100.741 107.011 100.741 105.964C100.741 104.916 101.591 104.066 102.639 104.066H105.801C106.849 104.066 107.699 104.916 107.699 105.964C107.699 107.011 106.849 107.861 105.801 107.861ZM120.349 124.94H116.554V85.7229H98.2108V124.94H94.4157V85.0904C94.4157 83.3459 95.8338 81.9277 97.5783 81.9277H117.187C118.931 81.9277 120.349 83.3459 120.349 85.0904V124.94Z" fill="#686868"/>
<path fill-rule="evenodd" clip-rule="evenodd" d="M117 85H98V125H117V85ZM102 105C101.448 105 101 105.448 101 106C101 106.552 101.448 107 102 107H106C106.552 107 107 106.552 107 106C107 105.448 106.552 105 106 105H102Z" fill="#F0B829"/>
<rect x="2" y="2" width="234" height="151" rx="28" stroke="#686868" stroke-width="4"/>
<path d="M235.927 128C234.904 141.978 223.239 153 209 153H29C14.761 153 3.0964 141.978 2.07295 128H235.927Z" fill="#686868" stroke="#686868" stroke-width="4"/>
<path d="M60.728 146L58.726 143.13C58.642 143.139 58.516 143.144 58.348 143.144H56.136V146H54.316V136.2H58.348C59.1973 136.2 59.9347 136.34 60.56 136.62C61.1947 136.9 61.68 137.301 62.016 137.824C62.352 138.347 62.52 138.967 62.52 139.686C62.52 140.423 62.338 141.058 61.974 141.59C61.6193 142.122 61.106 142.519 60.434 142.78L62.688 146H60.728ZM60.686 139.686C60.686 139.061 60.4807 138.58 60.07 138.244C59.6593 137.908 59.0573 137.74 58.264 137.74H56.136V141.646H58.264C59.0573 141.646 59.6593 141.478 60.07 141.142C60.4807 140.797 60.686 140.311 60.686 139.686ZM67.7482 146.098C66.9922 146.098 66.3109 145.935 65.7042 145.608C65.0976 145.281 64.6216 144.829 64.2762 144.25C63.9402 143.662 63.7722 142.999 63.7722 142.262C63.7722 141.525 63.9402 140.867 64.2762 140.288C64.6216 139.709 65.0976 139.257 65.7042 138.93C66.3109 138.603 66.9922 138.44 67.7482 138.44C68.5136 138.44 69.1996 138.603 69.8062 138.93C70.4129 139.257 70.8842 139.709 71.2202 140.288C71.5656 140.867 71.7382 141.525 71.7382 142.262C71.7382 142.999 71.5656 143.662 71.2202 144.25C70.8842 144.829 70.4129 145.281 69.8062 145.608C69.1996 145.935 68.5136 146.098 67.7482 146.098ZM67.7482 144.6C68.3922 144.6 68.9242 144.385 69.3442 143.956C69.7642 143.527 69.9742 142.962 69.9742 142.262C69.9742 141.562 69.7642 140.997 69.3442 140.568C68.9242 140.139 68.3922 139.924 67.7482 139.924C67.1042 139.924 66.5722 140.139 66.1522 140.568C65.7416 140.997 65.5362 141.562 65.5362 142.262C65.5362 142.962 65.7416 143.527 66.1522 143.956C66.5722 144.385 67.1042 144.6 67.7482 144.6ZM76.7717 146.098C76.0157 146.098 75.3343 145.935 74.7277 145.608C74.121 145.281 73.645 144.829 73.2997 144.25C72.9637 143.662 72.7957 142.999 72.7957 142.262C72.7957 141.525 72.9637 140.867 73.2997 140.288C73.645 139.709 74.121 139.257 74.7277 138.93C75.3343 138.603 76.0157 138.44 76.7717 138.44C77.537 138.44 78.223 138.603 78.8297 138.93C79.4363 139.257 79.9077 139.709 80.2437 140.288C80.589 140.867 80.7617 141.525 80.7617 142.262C80.7617 142.999 80.589 143.662 80.2437 144.25C79.9077 144.829 79.4363 145.281 78.8297 145.608C78.223 145.935 77.537 146.098 76.7717 146.098ZM76.7717 144.6C77.4157 144.6 77.9477 144.385 78.3677 143.956C78.7877 143.527 78.9977 142.962 78.9977 142.262C78.9977 141.562 78.7877 140.997 78.3677 140.568C77.9477 140.139 77.4157 139.924 76.7717 139.924C76.1277 139.924 75.5957 140.139 75.1757 140.568C74.765 140.997 74.5597 141.562 74.5597 142.262C74.5597 142.962 74.765 143.527 75.1757 143.956C75.5957 144.385 76.1277 144.6 76.7717 144.6ZM91.8711 138.44C92.8138 138.44 93.5604 138.715 94.1111 139.266C94.6618 139.807 94.9371 140.624 94.9371 141.716V146H93.1871V141.94C93.1871 141.287 93.0424 140.797 92.7531 140.47C92.4638 140.134 92.0484 139.966 91.5071 139.966C90.9191 139.966 90.4478 140.162 90.0931 140.554C89.7384 140.937 89.5611 141.487 89.5611 142.206V146H87.8111V141.94C87.8111 141.287 87.6664 140.797 87.3771 140.47C87.0878 140.134 86.6724 139.966 86.1311 139.966C85.5338 139.966 85.0578 140.157 84.7031 140.54C84.3578 140.923 84.1851 141.478 84.1851 142.206V146H82.4351V138.524H84.1011V139.476C84.3811 139.14 84.7311 138.883 85.1511 138.706C85.5711 138.529 86.0378 138.44 86.5511 138.44C87.1111 138.44 87.6058 138.547 88.0351 138.762C88.4738 138.967 88.8191 139.275 89.0711 139.686C89.3791 139.294 89.7758 138.991 90.2611 138.776C90.7464 138.552 91.2831 138.44 91.8711 138.44ZM105.285 138.44C106.227 138.44 106.983 138.715 107.553 139.266C108.122 139.817 108.407 140.633 108.407 141.716V146H106.657V141.94C106.657 141.287 106.503 140.797 106.195 140.47C105.887 140.134 105.448 139.966 104.879 139.966C104.235 139.966 103.726 140.162 103.353 140.554C102.979 140.937 102.793 141.492 102.793 142.22V146H101.043V138.524H102.709V139.49C102.998 139.145 103.362 138.883 103.801 138.706C104.239 138.529 104.734 138.44 105.285 138.44ZM117.723 142.304C117.723 142.425 117.714 142.598 117.695 142.822H111.829C111.932 143.373 112.198 143.811 112.627 144.138C113.066 144.455 113.607 144.614 114.251 144.614C115.072 144.614 115.749 144.343 116.281 143.802L117.219 144.88C116.883 145.281 116.458 145.585 115.945 145.79C115.432 145.995 114.853 146.098 114.209 146.098C113.388 146.098 112.664 145.935 112.039 145.608C111.414 145.281 110.928 144.829 110.583 144.25C110.247 143.662 110.079 142.999 110.079 142.262C110.079 141.534 110.242 140.881 110.569 140.302C110.905 139.714 111.367 139.257 111.955 138.93C112.543 138.603 113.206 138.44 113.943 138.44C114.671 138.44 115.32 138.603 115.889 138.93C116.468 139.247 116.916 139.7 117.233 140.288C117.56 140.867 117.723 141.539 117.723 142.304ZM113.943 139.84C113.383 139.84 112.907 140.008 112.515 140.344C112.132 140.671 111.899 141.109 111.815 141.66H116.057C115.982 141.119 115.754 140.68 115.371 140.344C114.988 140.008 114.512 139.84 113.943 139.84ZM122.055 138.44C123.156 138.44 123.996 138.706 124.575 139.238C125.163 139.761 125.457 140.554 125.457 141.618V146H123.805V145.09C123.59 145.417 123.282 145.669 122.881 145.846C122.489 146.014 122.013 146.098 121.453 146.098C120.893 146.098 120.403 146.005 119.983 145.818C119.563 145.622 119.236 145.356 119.003 145.02C118.779 144.675 118.667 144.287 118.667 143.858C118.667 143.186 118.914 142.649 119.409 142.248C119.913 141.837 120.701 141.632 121.775 141.632H123.707V141.52C123.707 140.997 123.548 140.596 123.231 140.316C122.923 140.036 122.461 139.896 121.845 139.896C121.425 139.896 121.009 139.961 120.599 140.092C120.197 140.223 119.857 140.405 119.577 140.638L118.891 139.364C119.283 139.065 119.754 138.837 120.305 138.678C120.855 138.519 121.439 138.44 122.055 138.44ZM121.817 144.824C122.255 144.824 122.643 144.726 122.979 144.53C123.324 144.325 123.567 144.035 123.707 143.662V142.794H121.901C120.893 142.794 120.389 143.125 120.389 143.788C120.389 144.105 120.515 144.357 120.767 144.544C121.019 144.731 121.369 144.824 121.817 144.824ZM129.369 139.616C129.873 138.832 130.759 138.44 132.029 138.44V140.106C131.879 140.078 131.744 140.064 131.623 140.064C130.941 140.064 130.409 140.265 130.027 140.666C129.644 141.058 129.453 141.627 129.453 142.374V146H127.703V138.524H129.369V139.616ZM141.595 138.44C142.323 138.44 142.971 138.599 143.541 138.916C144.119 139.233 144.572 139.681 144.899 140.26C145.225 140.839 145.389 141.506 145.389 142.262C145.389 143.018 145.225 143.69 144.899 144.278C144.572 144.857 144.119 145.305 143.541 145.622C142.971 145.939 142.323 146.098 141.595 146.098C140.587 146.098 139.789 145.762 139.201 145.09V148.716H137.451V138.524H139.117V139.504C139.406 139.149 139.761 138.883 140.181 138.706C140.61 138.529 141.081 138.44 141.595 138.44ZM141.399 144.6C142.043 144.6 142.57 144.385 142.981 143.956C143.401 143.527 143.611 142.962 143.611 142.262C143.611 141.562 143.401 140.997 142.981 140.568C142.57 140.139 142.043 139.924 141.399 139.924C140.979 139.924 140.601 140.022 140.265 140.218C139.929 140.405 139.663 140.675 139.467 141.03C139.271 141.385 139.173 141.795 139.173 142.262C139.173 142.729 139.271 143.139 139.467 143.494C139.663 143.849 139.929 144.124 140.265 144.32C140.601 144.507 140.979 144.6 141.399 144.6ZM154.076 142.304C154.076 142.425 154.067 142.598 154.048 142.822H148.182C148.285 143.373 148.551 143.811 148.98 144.138C149.419 144.455 149.96 144.614 150.604 144.614C151.426 144.614 152.102 144.343 152.634 143.802L153.572 144.88C153.236 145.281 152.812 145.585 152.298 145.79C151.785 145.995 151.206 146.098 150.562 146.098C149.741 146.098 149.018 145.935 148.392 145.608C147.767 145.281 147.282 144.829 146.936 144.25C146.6 143.662 146.432 142.999 146.432 142.262C146.432 141.534 146.596 140.881 146.922 140.302C147.258 139.714 147.72 139.257 148.308 138.93C148.896 138.603 149.559 138.44 150.296 138.44C151.024 138.44 151.673 138.603 152.242 138.93C152.821 139.247 153.269 139.7 153.586 140.288C153.913 140.867 154.076 141.539 154.076 142.304ZM150.296 139.84C149.736 139.84 149.26 140.008 148.868 140.344C148.486 140.671 148.252 141.109 148.168 141.66H152.41C152.336 141.119 152.107 140.68 151.724 140.344C151.342 140.008 150.866 139.84 150.296 139.84ZM159.117 146.098C158.361 146.098 157.68 145.935 157.073 145.608C156.467 145.281 155.991 144.829 155.645 144.25C155.309 143.662 155.141 142.999 155.141 142.262C155.141 141.525 155.309 140.867 155.645 140.288C155.991 139.709 156.467 139.257 157.073 138.93C157.68 138.603 158.361 138.44 159.117 138.44C159.883 138.44 160.569 138.603 161.175 138.93C161.782 139.257 162.253 139.709 162.589 140.288C162.935 140.867 163.107 141.525 163.107 142.262C163.107 142.999 162.935 143.662 162.589 144.25C162.253 144.829 161.782 145.281 161.175 145.608C160.569 145.935 159.883 146.098 159.117 146.098ZM159.117 144.6C159.761 144.6 160.293 144.385 160.713 143.956C161.133 143.527 161.343 142.962 161.343 142.262C161.343 141.562 161.133 140.997 160.713 140.568C160.293 140.139 159.761 139.924 159.117 139.924C158.473 139.924 157.941 140.139 157.521 140.568C157.111 140.997 156.905 141.562 156.905 142.262C156.905 142.962 157.111 143.527 157.521 143.956C157.941 144.385 158.473 144.6 159.117 144.6ZM168.925 138.44C169.653 138.44 170.301 138.599 170.871 138.916C171.449 139.233 171.902 139.681 172.229 140.26C172.555 140.839 172.719 141.506 172.719 142.262C172.719 143.018 172.555 143.69 172.229 144.278C171.902 144.857 171.449 145.305 170.871 145.622C170.301 145.939 169.653 146.098 168.925 146.098C167.917 146.098 167.119 145.762 166.531 145.09V148.716H164.781V138.524H166.447V139.504C166.736 139.149 167.091 138.883 167.511 138.706C167.94 138.529 168.411 138.44 168.925 138.44ZM168.729 144.6C169.373 144.6 169.9 144.385 170.311 143.956C170.731 143.527 170.941 142.962 170.941 142.262C170.941 141.562 170.731 140.997 170.311 140.568C169.9 140.139 169.373 139.924 168.729 139.924C168.309 139.924 167.931 140.022 167.595 140.218C167.259 140.405 166.993 140.675 166.797 141.03C166.601 141.385 166.503 141.795 166.503 142.262C166.503 142.729 166.601 143.139 166.797 143.494C166.993 143.849 167.259 144.124 167.595 144.32C167.931 144.507 168.309 144.6 168.729 144.6ZM174.378 135.612H176.128V146H174.378V135.612ZM185.453 142.304C185.453 142.425 185.444 142.598 185.425 142.822H179.559C179.662 143.373 179.928 143.811 180.357 144.138C180.796 144.455 181.337 144.614 181.981 144.614C182.803 144.614 183.479 144.343 184.011 143.802L184.949 144.88C184.613 145.281 184.189 145.585 183.675 145.79C183.162 145.995 182.583 146.098 181.939 146.098C181.118 146.098 180.395 145.935 179.769 145.608C179.144 145.281 178.659 144.829 178.313 144.25C177.977 143.662 177.809 142.999 177.809 142.262C177.809 141.534 177.973 140.881 178.299 140.302C178.635 139.714 179.097 139.257 179.685 138.93C180.273 138.603 180.936 138.44 181.673 138.44C182.401 138.44 183.05 138.603 183.619 138.93C184.198 139.247 184.646 139.7 184.963 140.288C185.29 140.867 185.453 141.539 185.453 142.304ZM181.673 139.84C181.113 139.84 180.637 140.008 180.245 140.344C179.863 140.671 179.629 141.109 179.545 141.66H183.787C183.713 141.119 183.484 140.68 183.101 140.344C182.719 140.008 182.243 139.84 181.673 139.84Z" fill="white"/>
<path d="M161.149 99.8737C162.916 99.8737 164.356 98.4448 164.356 96.6846C164.356 94.9189 162.916 93.49 161.149 93.49C159.374 93.49 157.936 94.9189 157.936 96.6846C157.936 98.4448 159.374 99.8737 161.149 99.8737Z" fill="#686868"/>
<path d="M171.475 117.579L177.158 117.58C177.239 117.584 179.191 117.614 180.113 115.864C181.224 113.755 181.623 109.923 181.083 106.542C180.995 105.988 181.375 105.466 181.933 105.378C182.494 105.291 183.015 105.669 183.103 106.223C183.612 109.413 183.445 113.921 181.924 116.809C180.516 119.483 177.718 119.615 177.202 119.615C177.156 119.615 177.129 119.614 177.121 119.614H171.475C170.911 119.614 170.453 119.158 170.453 118.597C170.453 118.035 170.911 117.579 171.475 117.579Z" fill="#686868"/>
<path d="M172.417 99.2373C170.651 99.2373 169.211 97.8083 169.211 96.0481C169.211 94.2825 170.651 92.8535 172.417 92.8535C174.193 92.8535 175.631 94.2825 175.631 96.0481C175.631 97.8083 174.193 99.2373 172.417 99.2373Z" fill="#686868"/>
<path d="M150.886 117.579L145.204 117.58C145.123 117.584 143.17 117.614 142.249 115.864C141.137 113.755 140.739 109.923 141.278 106.542C141.367 105.988 140.986 105.466 140.429 105.378C139.867 105.291 139.347 105.669 139.259 106.223C138.75 109.413 138.917 113.921 140.438 116.809C141.846 119.483 144.644 119.615 145.159 119.615C145.206 119.615 145.234 119.614 145.241 119.614H150.886C151.451 119.614 151.909 119.158 151.909 118.597C151.909 118.035 151.451 117.579 150.886 117.579Z" fill="#686868"/>
<path d="M149.944 99.2373C151.711 99.2373 153.151 97.8083 153.151 96.0481C153.151 94.2825 151.711 92.8535 149.944 92.8535C148.169 92.8535 146.73 94.2825 146.73 96.0481C146.73 97.8083 148.169 99.2373 149.944 99.2373Z" fill="#686868"/>
<path d="M173.403 99.9447C173.403 99.9447 172.049 100.483 172.016 103.68C171.961 104.139 171.91 104.989 171.876 106.049H165.637C164.869 106.049 164.246 106.669 164.246 107.435C164.246 108.114 164.735 108.675 165.38 108.795H156.982C157.626 108.675 158.115 108.114 158.115 107.435C158.115 106.669 157.493 106.049 156.724 106.049H150.485C150.452 104.989 150.4 104.139 150.346 103.68C150.313 100.483 148.959 99.9447 148.959 99.9447C142.758 97.2943 142.826 112.658 144.525 114.792C144.525 114.792 145.094 115.8 146.57 115.8H153.866V125C153.866 126.047 154.538 127 155.798 127C156.919 127 157.582 126.13 157.582 125.087V116.502L164.097 120.229C164.314 120.352 164.544 120.438 164.779 120.488V125.088C164.779 126.13 165.442 127 166.563 127C167.822 127 168.495 126.048 168.495 125V115.8H175.866C176.47 115.8 176.931 115.631 177.27 115.387C177.573 115.17 177.836 114.793 177.836 114.793C179.535 112.658 179.603 97.2943 173.403 99.9447ZM167.007 111.372H167.001C165.772 111.372 164.775 112.363 164.775 113.586C164.775 113.618 164.783 113.649 164.785 113.682C164.782 113.698 164.778 113.714 164.778 113.732V116.412L156.423 111.634C156.365 111.601 156.085 111.483 156.005 111.465C155.809 111.409 155.566 111.372 155.353 111.372H150.457C150.469 111.112 150.475 110.85 150.484 110.589H171.877C171.886 110.85 171.892 111.112 171.904 111.372H167.007Z" fill="#686868"/>
<path d="M166.847 105.149V104.302C166.847 102.429 165.322 100.911 163.439 100.911H158.838C156.956 100.911 155.43 102.429 155.43 104.302V105.149H166.847Z" fill="#686868"/>
<path d="M212.111 116.88L216.68 116.881C216.745 116.884 218.314 116.908 219.055 115.501C219.949 113.805 220.269 110.724 219.836 108.006C219.765 107.56 220.07 107.141 220.519 107.07C220.97 107 221.389 107.304 221.459 107.749C221.869 110.314 221.735 113.939 220.512 116.26C219.38 118.411 217.13 118.517 216.716 118.517C216.679 118.517 216.656 118.516 216.65 118.516H212.111C211.658 118.516 211.289 118.149 211.289 117.698C211.289 117.246 211.657 116.88 212.111 116.88Z" fill="#686868"/>
<path d="M212.867 102.133C211.447 102.133 210.289 100.984 210.289 99.5685C210.289 98.1489 211.447 97 212.867 97C214.295 97 215.451 98.1489 215.451 99.5685C215.451 100.984 214.295 102.133 212.867 102.133Z" fill="#686868"/>
<path d="M195.557 116.88L190.988 116.881C190.923 116.884 189.353 116.908 188.613 115.501C187.719 113.805 187.398 110.724 187.832 108.006C187.903 107.56 187.597 107.141 187.149 107.07C186.697 107 186.279 107.304 186.208 107.749C185.799 110.314 185.933 113.939 187.156 116.26C188.288 118.411 190.538 118.517 190.952 118.517C190.989 118.517 191.012 118.516 191.018 118.516H195.557C196.011 118.516 196.379 118.149 196.379 117.698C196.379 117.246 196.011 116.88 195.557 116.88Z" fill="#686868"/>
<path d="M194.799 102.133C196.219 102.133 197.377 100.984 197.377 99.5685C197.377 98.1489 196.219 97 194.799 97C193.371 97 192.215 98.1489 192.215 99.5685C192.215 100.984 193.371 102.133 194.799 102.133Z" fill="#686868"/>
<path d="M213.661 102.701C213.661 102.701 212.572 103.134 212.546 105.705C212.502 106.073 212.461 106.757 212.433 107.61H207.417C206.8 107.61 206.299 108.107 206.299 108.724C206.299 109.269 206.692 109.72 207.21 109.817H200.459C200.976 109.72 201.369 109.269 201.369 108.724C201.369 108.107 200.869 107.61 200.251 107.61H195.235C195.209 106.757 195.167 106.073 195.123 105.705C195.097 103.134 194.008 102.701 194.008 102.701C189.022 100.57 189.077 112.923 190.443 114.639C190.443 114.639 190.9 115.449 192.087 115.449H197.953V122.846C197.953 123.688 198.494 124.454 199.506 124.454C200.408 124.454 200.941 123.754 200.941 122.916V116.014L206.179 119.01C206.354 119.109 206.539 119.178 206.727 119.218V122.916C206.727 123.755 207.26 124.454 208.162 124.454C209.174 124.454 209.715 123.688 209.715 122.846V115.449H215.642C216.127 115.449 216.498 115.313 216.77 115.117C217.014 114.943 217.225 114.639 217.225 114.639C218.591 112.923 218.646 100.57 213.661 102.701ZM208.519 111.889H208.514C207.526 111.889 206.724 112.686 206.724 113.669C206.724 113.695 206.731 113.72 206.732 113.746C206.73 113.759 206.727 113.772 206.727 113.786V115.941L200.009 112.1C199.962 112.073 199.737 111.978 199.673 111.964C199.516 111.919 199.32 111.889 199.149 111.889H195.213C195.222 111.68 195.227 111.469 195.234 111.259H212.434C212.442 111.469 212.447 111.68 212.456 111.889H208.519Z" fill="#686868"/>
<path d="M139 87H160.434H161.566H183C182.008 80.6725 172.836 75.6907 161.566 75.5287V73.5895C161.509 72.8286 160.462 72.7789 160.434 73.5895V75.5287C149.165 75.6907 139.992 80.6725 139 87Z" fill="#686868"/>
<path d="M186 94H203.05H203.95H221C220.211 89.0284 212.915 85.1141 203.95 84.9868V83.4631C203.905 82.8653 203.072 82.8263 203.05 83.4631V84.9868C194.086 85.1141 186.789 89.0284 186 94Z" fill="#686868"/>
</svg>
