<svg width="238" height="159" viewBox="0 0 238 159" fill="none" xmlns="http://www.w3.org/2000/svg">
<path d="M47.6094 113.554H84.9287V88.8855H47.6094V113.554ZM76.4439 92.4188C76.9385 91.9242 77.7381 91.9242 78.2327 92.4188L81.3953 95.5815C81.89 96.0761 81.89 96.8756 81.3953 97.3703C81.1487 97.6169 80.8248 97.7409 80.5009 97.7409C80.1771 97.7409 79.8532 97.6169 79.6065 97.3703L76.4439 94.2076C75.9493 93.713 75.9493 92.9134 76.4439 92.4188ZM70.1186 92.4188C70.6132 91.9242 71.4128 91.9242 71.9074 92.4188L81.3953 101.907C81.89 102.401 81.89 103.201 81.3953 103.696C81.1487 103.942 80.8248 104.066 80.5009 104.066C80.1771 104.066 79.8532 103.942 79.6065 103.696L70.1186 94.2076C69.624 93.713 69.624 92.9134 70.1186 92.4188Z" fill="#1266F1"/>
<path d="M131.102 126.205H124.777V77.691C128.555 75.5037 131.102 71.4265 131.102 66.747C131.102 63.573 121.614 41.4458 121.614 41.4458H39.3855C39.3855 41.4458 29.8976 63.573 29.8976 66.747C29.8976 71.4265 32.4454 75.5037 36.2229 77.691V126.205H29.8976C28.8501 126.205 28 127.055 28 128.102C28 129.15 28.8501 130 29.8976 130H98.2108H116.554H131.102C132.15 130 133 129.15 133 128.102C133 127.055 132.15 126.205 131.102 126.205ZM88.7229 114.187C88.7229 115.931 87.3048 117.349 85.5602 117.349H46.9759C45.2326 117.349 43.8133 115.931 43.8133 114.187V88.253C43.8133 86.5085 45.2326 85.0904 46.9759 85.0904H85.5602C87.3048 85.0904 88.7229 86.5085 88.7229 88.253V114.187ZM105.801 107.861H102.639C101.591 107.861 100.741 107.011 100.741 105.964C100.741 104.916 101.591 104.066 102.639 104.066H105.801C106.849 104.066 107.699 104.916 107.699 105.964C107.699 107.011 106.849 107.861 105.801 107.861ZM120.349 124.94H116.554V85.7229H98.2108V124.94H94.4157V85.0904C94.4157 83.3459 95.8338 81.9277 97.5783 81.9277H117.187C118.931 81.9277 120.349 83.3459 120.349 85.0904V124.94Z" fill="#1266F1"/>
<path fill-rule="evenodd" clip-rule="evenodd" d="M117 85H98V125H117V85ZM102 105C101.448 105 101 105.448 101 106C101 106.552 101.448 107 102 107H106C106.552 107 107 106.552 107 106C107 105.448 106.552 105 106 105H102Z" fill="#FFA900"/>
<rect x="2" y="2" width="234" height="151" rx="28" stroke="#1266F1" stroke-width="4"/>
<path d="M235.927 128C234.904 141.978 223.239 153 209 153H29C14.761 153 3.0964 141.978 2.07295 128H235.927Z" fill="#1266F1" stroke="#1266F1" stroke-width="4"/>
<path d="M60.728 146L58.726 143.13C58.642 143.139 58.516 143.144 58.348 143.144H56.136V146H54.316V136.2H58.348C59.1973 136.2 59.9347 136.34 60.56 136.62C61.1947 136.9 61.68 137.301 62.016 137.824C62.352 138.347 62.52 138.967 62.52 139.686C62.52 140.423 62.338 141.058 61.974 141.59C61.6193 142.122 61.106 142.519 60.434 142.78L62.688 146H60.728ZM60.686 139.686C60.686 139.061 60.4807 138.58 60.07 138.244C59.6593 137.908 59.0573 137.74 58.264 137.74H56.136V141.646H58.264C59.0573 141.646 59.6593 141.478 60.07 141.142C60.4807 140.797 60.686 140.311 60.686 139.686ZM67.7482 146.098C66.9922 146.098 66.3109 145.935 65.7042 145.608C65.0976 145.281 64.6216 144.829 64.2762 144.25C63.9402 143.662 63.7722 142.999 63.7722 142.262C63.7722 141.525 63.9402 140.867 64.2762 140.288C64.6216 139.709 65.0976 139.257 65.7042 138.93C66.3109 138.603 66.9922 138.44 67.7482 138.44C68.5136 138.44 69.1996 138.603 69.8062 138.93C70.4129 139.257 70.8842 139.709 71.2202 140.288C71.5656 140.867 71.7382 141.525 71.7382 142.262C71.7382 142.999 71.5656 143.662 71.2202 144.25C70.8842 144.829 70.4129 145.281 69.8062 145.608C69.1996 145.935 68.5136 146.098 67.7482 146.098ZM67.7482 144.6C68.3922 144.6 68.9242 144.385 69.3442 143.956C69.7642 143.527 69.9742 142.962 69.9742 142.262C69.9742 141.562 69.7642 140.997 69.3442 140.568C68.9242 140.139 68.3922 139.924 67.7482 139.924C67.1042 139.924 66.5722 140.139 66.1522 140.568C65.7416 140.997 65.5362 141.562 65.5362 142.262C65.5362 142.962 65.7416 143.527 66.1522 143.956C66.5722 144.385 67.1042 144.6 67.7482 144.6ZM76.7717 146.098C76.0157 146.098 75.3343 145.935 74.7277 145.608C74.121 145.281 73.645 144.829 73.2997 144.25C72.9637 143.662 72.7957 142.999 72.7957 142.262C72.7957 141.525 72.9637 140.867 73.2997 140.288C73.645 139.709 74.121 139.257 74.7277 138.93C75.3343 138.603 76.0157 138.44 76.7717 138.44C77.537 138.44 78.223 138.603 78.8297 138.93C79.4363 139.257 79.9077 139.709 80.2437 140.288C80.589 140.867 80.7617 141.525 80.7617 142.262C80.7617 142.999 80.589 143.662 80.2437 144.25C79.9077 144.829 79.4363 145.281 78.8297 145.608C78.223 145.935 77.537 146.098 76.7717 146.098ZM76.7717 144.6C77.4157 144.6 77.9477 144.385 78.3677 143.956C78.7877 143.527 78.9977 142.962 78.9977 142.262C78.9977 141.562 78.7877 140.997 78.3677 140.568C77.9477 140.139 77.4157 139.924 76.7717 139.924C76.1277 139.924 75.5957 140.139 75.1757 140.568C74.765 140.997 74.5597 141.562 74.5597 142.262C74.5597 142.962 74.765 143.527 75.1757 143.956C75.5957 144.385 76.1277 144.6 76.7717 144.6ZM91.8711 138.44C92.8138 138.44 93.5604 138.715 94.1111 139.266C94.6618 139.807 94.9371 140.624 94.9371 141.716V146H93.1871V141.94C93.1871 141.287 93.0424 140.797 92.7531 140.47C92.4638 140.134 92.0484 139.966 91.5071 139.966C90.9191 139.966 90.4478 140.162 90.0931 140.554C89.7384 140.937 89.5611 141.487 89.5611 142.206V146H87.8111V141.94C87.8111 141.287 87.6664 140.797 87.3771 140.47C87.0878 140.134 86.6724 139.966 86.1311 139.966C85.5338 139.966 85.0578 140.157 84.7031 140.54C84.3578 140.923 84.1851 141.478 84.1851 142.206V146H82.4351V138.524H84.1011V139.476C84.3811 139.14 84.7311 138.883 85.1511 138.706C85.5711 138.529 86.0378 138.44 86.5511 138.44C87.1111 138.44 87.6058 138.547 88.0351 138.762C88.4738 138.967 88.8191 139.275 89.0711 139.686C89.3791 139.294 89.7758 138.991 90.2611 138.776C90.7464 138.552 91.2831 138.44 91.8711 138.44ZM105.285 138.44C106.227 138.44 106.983 138.715 107.553 139.266C108.122 139.817 108.407 140.633 108.407 141.716V146H106.657V141.94C106.657 141.287 106.503 140.797 106.195 140.47C105.887 140.134 105.448 139.966 104.879 139.966C104.235 139.966 103.726 140.162 103.353 140.554C102.979 140.937 102.793 141.492 102.793 142.22V146H101.043V138.524H102.709V139.49C102.998 139.145 103.362 138.883 103.801 138.706C104.239 138.529 104.734 138.44 105.285 138.44ZM117.723 142.304C117.723 142.425 117.714 142.598 117.695 142.822H111.829C111.932 143.373 112.198 143.811 112.627 144.138C113.066 144.455 113.607 144.614 114.251 144.614C115.072 144.614 115.749 144.343 116.281 143.802L117.219 144.88C116.883 145.281 116.458 145.585 115.945 145.79C115.432 145.995 114.853 146.098 114.209 146.098C113.388 146.098 112.664 145.935 112.039 145.608C111.414 145.281 110.928 144.829 110.583 144.25C110.247 143.662 110.079 142.999 110.079 142.262C110.079 141.534 110.242 140.881 110.569 140.302C110.905 139.714 111.367 139.257 111.955 138.93C112.543 138.603 113.206 138.44 113.943 138.44C114.671 138.44 115.32 138.603 115.889 138.93C116.468 139.247 116.916 139.7 117.233 140.288C117.56 140.867 117.723 141.539 117.723 142.304ZM113.943 139.84C113.383 139.84 112.907 140.008 112.515 140.344C112.132 140.671 111.899 141.109 111.815 141.66H116.057C115.982 141.119 115.754 140.68 115.371 140.344C114.988 140.008 114.512 139.84 113.943 139.84ZM122.055 138.44C123.156 138.44 123.996 138.706 124.575 139.238C125.163 139.761 125.457 140.554 125.457 141.618V146H123.805V145.09C123.59 145.417 123.282 145.669 122.881 145.846C122.489 146.014 122.013 146.098 121.453 146.098C120.893 146.098 120.403 146.005 119.983 145.818C119.563 145.622 119.236 145.356 119.003 145.02C118.779 144.675 118.667 144.287 118.667 143.858C118.667 143.186 118.914 142.649 119.409 142.248C119.913 141.837 120.701 141.632 121.775 141.632H123.707V141.52C123.707 140.997 123.548 140.596 123.231 140.316C122.923 140.036 122.461 139.896 121.845 139.896C121.425 139.896 121.009 139.961 120.599 140.092C120.197 140.223 119.857 140.405 119.577 140.638L118.891 139.364C119.283 139.065 119.754 138.837 120.305 138.678C120.855 138.519 121.439 138.44 122.055 138.44ZM121.817 144.824C122.255 144.824 122.643 144.726 122.979 144.53C123.324 144.325 123.567 144.035 123.707 143.662V142.794H121.901C120.893 142.794 120.389 143.125 120.389 143.788C120.389 144.105 120.515 144.357 120.767 144.544C121.019 144.731 121.369 144.824 121.817 144.824ZM129.369 139.616C129.873 138.832 130.759 138.44 132.029 138.44V140.106C131.879 140.078 131.744 140.064 131.623 140.064C130.941 140.064 130.409 140.265 130.027 140.666C129.644 141.058 129.453 141.627 129.453 142.374V146H127.703V138.524H129.369V139.616ZM141.693 138.44C142.635 138.44 143.391 138.715 143.961 139.266C144.53 139.817 144.815 140.633 144.815 141.716V146H143.065V141.94C143.065 141.287 142.911 140.797 142.603 140.47C142.295 140.134 141.856 139.966 141.287 139.966C140.643 139.966 140.134 140.162 139.761 140.554C139.387 140.937 139.201 141.492 139.201 142.22V146H137.451V138.524H139.117V139.49C139.406 139.145 139.77 138.883 140.209 138.706C140.647 138.529 141.142 138.44 141.693 138.44ZM149.891 138.44C150.992 138.44 151.832 138.706 152.411 139.238C152.999 139.761 153.293 140.554 153.293 141.618V146H151.641V145.09C151.426 145.417 151.118 145.669 150.717 145.846C150.325 146.014 149.849 146.098 149.289 146.098C148.729 146.098 148.239 146.005 147.819 145.818C147.399 145.622 147.072 145.356 146.839 145.02C146.615 144.675 146.503 144.287 146.503 143.858C146.503 143.186 146.75 142.649 147.245 142.248C147.749 141.837 148.537 141.632 149.611 141.632H151.543V141.52C151.543 140.997 151.384 140.596 151.067 140.316C150.759 140.036 150.297 139.896 149.681 139.896C149.261 139.896 148.845 139.961 148.435 140.092C148.033 140.223 147.693 140.405 147.413 140.638L146.727 139.364C147.119 139.065 147.59 138.837 148.141 138.678C148.691 138.519 149.275 138.44 149.891 138.44ZM149.653 144.824C150.091 144.824 150.479 144.726 150.815 144.53C151.16 144.325 151.403 144.035 151.543 143.662V142.794H149.737C148.729 142.794 148.225 143.125 148.225 143.788C148.225 144.105 148.351 144.357 148.603 144.544C148.855 144.731 149.205 144.824 149.653 144.824ZM160.033 145.594C159.827 145.762 159.575 145.888 159.277 145.972C158.987 146.056 158.679 146.098 158.353 146.098C157.531 146.098 156.897 145.883 156.449 145.454C156.001 145.025 155.777 144.399 155.777 143.578V139.98H154.545V138.58H155.777V136.872H157.527V138.58H159.529V139.98H157.527V143.536C157.527 143.9 157.615 144.18 157.793 144.376C157.97 144.563 158.227 144.656 158.563 144.656C158.955 144.656 159.281 144.553 159.543 144.348L160.033 145.594ZM168.71 138.524V146H167.044V145.048C166.764 145.384 166.414 145.645 165.994 145.832C165.574 146.009 165.122 146.098 164.636 146.098C163.638 146.098 162.849 145.823 162.27 145.272C161.701 144.712 161.416 143.886 161.416 142.794V138.524H163.166V142.556C163.166 143.228 163.316 143.732 163.614 144.068C163.922 144.395 164.356 144.558 164.916 144.558C165.542 144.558 166.036 144.367 166.4 143.984C166.774 143.592 166.96 143.032 166.96 142.304V138.524H168.71ZM172.668 139.616C173.172 138.832 174.058 138.44 175.328 138.44V140.106C175.178 140.078 175.043 140.064 174.922 140.064C174.24 140.064 173.708 140.265 173.326 140.666C172.943 141.058 172.752 141.627 172.752 142.374V146H171.002V138.524H172.668V139.616ZM183.772 142.304C183.772 142.425 183.762 142.598 183.744 142.822H177.878C177.98 143.373 178.246 143.811 178.676 144.138C179.114 144.455 179.656 144.614 180.3 144.614C181.121 144.614 181.798 144.343 182.33 143.802L183.268 144.88C182.932 145.281 182.507 145.585 181.994 145.79C181.48 145.995 180.902 146.098 180.258 146.098C179.436 146.098 178.713 145.935 178.088 145.608C177.462 145.281 176.977 144.829 176.632 144.25C176.296 143.662 176.128 142.999 176.128 142.262C176.128 141.534 176.291 140.881 176.618 140.302C176.954 139.714 177.416 139.257 178.004 138.93C178.592 138.603 179.254 138.44 179.992 138.44C180.72 138.44 181.368 138.603 181.938 138.93C182.516 139.247 182.964 139.7 183.282 140.288C183.608 140.867 183.772 141.539 183.772 142.304ZM179.992 139.84C179.432 139.84 178.956 140.008 178.564 140.344C178.181 140.671 177.948 141.109 177.864 141.66H182.106C182.031 141.119 181.802 140.68 181.42 140.344C181.037 140.008 180.561 139.84 179.992 139.84Z" fill="white"/>
<path d="M157.365 65.2817H159.392C159.392 63.2742 161.023 61.641 163.028 61.641V59.6116C161.105 59.6116 159.401 60.5759 158.378 62.0476C157.354 60.5759 155.652 59.6116 153.729 59.6116V61.641C155.734 61.641 157.365 63.2742 157.365 65.2817Z" fill="#1266F1"/>
<path d="M217.363 88.0107H219.39C219.39 86.0032 221.021 84.37 223.026 84.37V82.3406C221.103 82.3406 219.399 83.3049 218.376 84.7766C217.352 83.3049 215.651 82.3406 213.727 82.3406V84.37C215.732 84.37 217.363 86.0032 217.363 88.0107Z" fill="#1266F1"/>
<path d="M197.093 50.6701H199.12C199.12 48.6626 200.751 47.0294 202.757 47.0294V45C200.833 45 199.13 45.9644 198.107 47.4361C197.083 45.9644 195.381 45 193.457 45V47.0294C195.462 47.0294 197.093 48.6626 197.093 50.6701Z" fill="#1266F1"/>
<path fill-rule="evenodd" clip-rule="evenodd" d="M151.489 97.5303C151.489 96.4864 151.57 95.4434 151.727 94.4114C149.563 96.5321 148.293 99.3624 148.16 102.414C145.573 104.287 144 107.321 144 110.536C144 116.063 148.508 120.56 154.05 120.56H158.586V124.417C158.586 125.291 159.296 126 160.172 126C161.049 126 161.759 125.291 161.759 124.417V120.56H166.295C168.478 120.56 170.544 119.857 172.232 118.624C160.757 118.406 151.489 109.028 151.489 97.5303ZM214.338 97.5302C214.338 93.1119 212.675 88.8857 209.806 85.6439C209.679 85.5 209.549 85.3581 209.417 85.2182C209.417 85.2175 209.416 85.2169 209.416 85.2164C209.286 85.0789 209.154 84.9436 209.02 84.81C209.016 84.806 209.012 84.8018 209.008 84.7977C208.879 84.6695 208.748 84.5433 208.615 84.4189C208.605 84.4097 208.595 84.4004 208.585 84.3911C208.459 84.2736 208.331 84.1584 208.201 84.0445C208.184 84.0291 208.167 84.0136 208.149 83.9984C208.028 83.8924 207.904 83.7887 207.779 83.6857C207.753 83.6643 207.728 83.6422 207.701 83.6208C207.585 83.5255 207.466 83.4326 207.346 83.3402C207.312 83.3134 207.278 83.2859 207.243 83.2595C207.127 83.1707 207.008 83.0843 206.89 82.9982C206.852 82.9708 206.815 82.9423 206.777 82.9152C206.62 82.8041 206.462 82.6951 206.302 82.5886C206.231 76.1973 203.417 70.2807 198.525 66.1857C198.575 65.7036 198.6 65.2225 198.6 64.7472C198.6 56.9917 192.275 50.6821 184.5 50.6821C176.725 50.6821 170.4 56.9917 170.4 64.7472C170.4 65.2222 170.425 65.7035 170.475 66.1857C165.583 70.2807 162.769 76.1973 162.698 82.5886C162.538 82.6951 162.379 82.8043 162.223 82.9156C162.187 82.9414 162.151 82.9684 162.115 82.9945C161.995 83.0819 161.874 83.1697 161.756 83.2599C161.723 83.2853 161.69 83.3117 161.657 83.3372C161.537 83.4307 161.416 83.5249 161.298 83.6211C161.273 83.6418 161.248 83.6632 161.223 83.6839C161.097 83.7874 160.973 83.8919 160.851 83.9986C160.833 84.0136 160.817 84.0288 160.8 84.0438C160.67 84.1581 160.541 84.2736 160.415 84.3914C160.405 84.4002 160.396 84.4094 160.386 84.4183C160.253 84.543 160.121 84.6695 159.992 84.798C159.988 84.8018 159.984 84.8057 159.98 84.8095C159.846 84.9433 159.714 85.0787 159.584 85.2163C159.584 85.2169 159.583 85.2175 159.583 85.2182C159.451 85.3581 159.321 85.4999 159.194 85.6437C156.325 88.8854 154.662 93.1119 154.662 97.5303C154.662 107.419 162.728 115.464 172.641 115.464H175.046H182.913V124.417C182.913 125.291 183.624 126 184.5 126C185.376 126 186.087 125.291 186.087 124.417V115.464H193.953H196.359C206.272 115.464 214.338 107.419 214.338 97.5302ZM220.841 102.414C220.707 99.3625 219.437 96.5321 217.273 94.4113C217.43 95.4435 217.511 96.4865 217.511 97.5302C217.511 109.028 208.243 118.406 196.768 118.624C198.455 119.857 200.522 120.56 202.705 120.56H207.241V124.417C207.241 125.291 207.951 126 208.828 126C209.704 126 210.414 125.291 210.414 124.417V120.56H214.95C220.492 120.56 225 116.063 225 110.535C225 107.321 223.427 104.287 220.841 102.414Z" fill="#1266F1"/>
</svg>
