<svg width="238" height="159" viewBox="0 0 238 159" fill="none" xmlns="http://www.w3.org/2000/svg">
<path d="M47.6094 113.554H84.9287V88.8855H47.6094V113.554ZM76.4439 92.4188C76.9385 91.9242 77.7381 91.9242 78.2327 92.4188L81.3953 95.5815C81.89 96.0761 81.89 96.8756 81.3953 97.3703C81.1487 97.6169 80.8248 97.7409 80.5009 97.7409C80.1771 97.7409 79.8532 97.6169 79.6065 97.3703L76.4439 94.2076C75.9493 93.713 75.9493 92.9134 76.4439 92.4188ZM70.1186 92.4188C70.6132 91.9242 71.4128 91.9242 71.9074 92.4188L81.3953 101.907C81.89 102.401 81.89 103.201 81.3953 103.696C81.1487 103.942 80.8248 104.066 80.5009 104.066C80.1771 104.066 79.8532 103.942 79.6065 103.696L70.1186 94.2076C69.624 93.713 69.624 92.9134 70.1186 92.4188Z" fill="#1266F1"/>
<path d="M131.102 126.205H124.777V77.691C128.555 75.5037 131.102 71.4265 131.102 66.747C131.102 63.573 121.614 41.4458 121.614 41.4458H39.3855C39.3855 41.4458 29.8976 63.573 29.8976 66.747C29.8976 71.4265 32.4454 75.5037 36.2229 77.691V126.205H29.8976C28.8501 126.205 28 127.055 28 128.102C28 129.15 28.8501 130 29.8976 130H98.2108H116.554H131.102C132.15 130 133 129.15 133 128.102C133 127.055 132.15 126.205 131.102 126.205ZM88.7229 114.187C88.7229 115.931 87.3048 117.349 85.5602 117.349H46.9759C45.2326 117.349 43.8133 115.931 43.8133 114.187V88.253C43.8133 86.5085 45.2326 85.0904 46.9759 85.0904H85.5602C87.3048 85.0904 88.7229 86.5085 88.7229 88.253V114.187ZM105.801 107.861H102.639C101.591 107.861 100.741 107.011 100.741 105.964C100.741 104.916 101.591 104.066 102.639 104.066H105.801C106.849 104.066 107.699 104.916 107.699 105.964C107.699 107.011 106.849 107.861 105.801 107.861ZM120.349 124.94H116.554V85.7229H98.2108V124.94H94.4157V85.0904C94.4157 83.3459 95.8338 81.9277 97.5783 81.9277H117.187C118.931 81.9277 120.349 83.3459 120.349 85.0904V124.94Z" fill="#1266F1"/>
<path fill-rule="evenodd" clip-rule="evenodd" d="M117 85H98V125H117V85ZM102 105C101.448 105 101 105.448 101 106C101 106.552 101.448 107 102 107H106C106.552 107 107 106.552 107 106C107 105.448 106.552 105 106 105H102Z" fill="#FFA900"/>
<rect x="2" y="2" width="234" height="151" rx="28" stroke="#1266F1" stroke-width="4"/>
<path d="M235.927 128C234.904 141.978 223.239 153 209 153H29C14.761 153 3.0964 141.978 2.07295 128H235.927Z" fill="#1266F1" stroke="#1266F1" stroke-width="4"/>
<path d="M34.728 146L32.726 143.13C32.642 143.139 32.516 143.144 32.348 143.144H30.136V146H28.316V136.2H32.348C33.1973 136.2 33.9347 136.34 34.56 136.62C35.1947 136.9 35.68 137.301 36.016 137.824C36.352 138.347 36.52 138.967 36.52 139.686C36.52 140.423 36.338 141.058 35.974 141.59C35.6193 142.122 35.106 142.519 34.434 142.78L36.688 146H34.728ZM34.686 139.686C34.686 139.061 34.4807 138.58 34.07 138.244C33.6593 137.908 33.0573 137.74 32.264 137.74H30.136V141.646H32.264C33.0573 141.646 33.6593 141.478 34.07 141.142C34.4807 140.797 34.686 140.311 34.686 139.686ZM41.7482 146.098C40.9922 146.098 40.3109 145.935 39.7042 145.608C39.0976 145.281 38.6216 144.829 38.2762 144.25C37.9402 143.662 37.7722 142.999 37.7722 142.262C37.7722 141.525 37.9402 140.867 38.2762 140.288C38.6216 139.709 39.0976 139.257 39.7042 138.93C40.3109 138.603 40.9922 138.44 41.7482 138.44C42.5136 138.44 43.1996 138.603 43.8062 138.93C44.4129 139.257 44.8842 139.709 45.2202 140.288C45.5656 140.867 45.7382 141.525 45.7382 142.262C45.7382 142.999 45.5656 143.662 45.2202 144.25C44.8842 144.829 44.4129 145.281 43.8062 145.608C43.1996 145.935 42.5136 146.098 41.7482 146.098ZM41.7482 144.6C42.3922 144.6 42.9242 144.385 43.3442 143.956C43.7642 143.527 43.9742 142.962 43.9742 142.262C43.9742 141.562 43.7642 140.997 43.3442 140.568C42.9242 140.139 42.3922 139.924 41.7482 139.924C41.1042 139.924 40.5722 140.139 40.1522 140.568C39.7416 140.997 39.5362 141.562 39.5362 142.262C39.5362 142.962 39.7416 143.527 40.1522 143.956C40.5722 144.385 41.1042 144.6 41.7482 144.6ZM50.7717 146.098C50.0157 146.098 49.3343 145.935 48.7277 145.608C48.121 145.281 47.645 144.829 47.2997 144.25C46.9637 143.662 46.7957 142.999 46.7957 142.262C46.7957 141.525 46.9637 140.867 47.2997 140.288C47.645 139.709 48.121 139.257 48.7277 138.93C49.3343 138.603 50.0157 138.44 50.7717 138.44C51.537 138.44 52.223 138.603 52.8297 138.93C53.4363 139.257 53.9077 139.709 54.2437 140.288C54.589 140.867 54.7617 141.525 54.7617 142.262C54.7617 142.999 54.589 143.662 54.2437 144.25C53.9077 144.829 53.4363 145.281 52.8297 145.608C52.223 145.935 51.537 146.098 50.7717 146.098ZM50.7717 144.6C51.4157 144.6 51.9477 144.385 52.3677 143.956C52.7877 143.527 52.9977 142.962 52.9977 142.262C52.9977 141.562 52.7877 140.997 52.3677 140.568C51.9477 140.139 51.4157 139.924 50.7717 139.924C50.1277 139.924 49.5957 140.139 49.1757 140.568C48.765 140.997 48.5597 141.562 48.5597 142.262C48.5597 142.962 48.765 143.527 49.1757 143.956C49.5957 144.385 50.1277 144.6 50.7717 144.6ZM65.8711 138.44C66.8138 138.44 67.5604 138.715 68.1111 139.266C68.6618 139.807 68.9371 140.624 68.9371 141.716V146H67.1871V141.94C67.1871 141.287 67.0424 140.797 66.7531 140.47C66.4638 140.134 66.0484 139.966 65.5071 139.966C64.9191 139.966 64.4478 140.162 64.0931 140.554C63.7384 140.937 63.5611 141.487 63.5611 142.206V146H61.8111V141.94C61.8111 141.287 61.6664 140.797 61.3771 140.47C61.0878 140.134 60.6724 139.966 60.1311 139.966C59.5338 139.966 59.0578 140.157 58.7031 140.54C58.3578 140.923 58.1851 141.478 58.1851 142.206V146H56.4351V138.524H58.1011V139.476C58.3811 139.14 58.7311 138.883 59.1511 138.706C59.5711 138.529 60.0378 138.44 60.5511 138.44C61.1111 138.44 61.6058 138.547 62.0351 138.762C62.4738 138.967 62.8191 139.275 63.0711 139.686C63.3791 139.294 63.7758 138.991 64.2611 138.776C64.7464 138.552 65.2831 138.44 65.8711 138.44ZM79.2845 138.44C80.2272 138.44 80.9832 138.715 81.5525 139.266C82.1219 139.817 82.4065 140.633 82.4065 141.716V146H80.6565V141.94C80.6565 141.287 80.5025 140.797 80.1945 140.47C79.8865 140.134 79.4479 139.966 78.8785 139.966C78.2345 139.966 77.7259 140.162 77.3525 140.554C76.9792 140.937 76.7925 141.492 76.7925 142.22V146H75.0425V138.524H76.7085V139.49C76.9979 139.145 77.3619 138.883 77.8005 138.706C78.2392 138.529 78.7339 138.44 79.2845 138.44ZM91.7229 142.304C91.7229 142.425 91.7135 142.598 91.6949 142.822H85.8289C85.9315 143.373 86.1975 143.811 86.6269 144.138C87.0655 144.455 87.6069 144.614 88.2509 144.614C89.0722 144.614 89.7489 144.343 90.2809 143.802L91.2189 144.88C90.8829 145.281 90.4582 145.585 89.9449 145.79C89.4315 145.995 88.8529 146.098 88.2089 146.098C87.3875 146.098 86.6642 145.935 86.0389 145.608C85.4135 145.281 84.9282 144.829 84.5829 144.25C84.2469 143.662 84.0789 142.999 84.0789 142.262C84.0789 141.534 84.2422 140.881 84.5689 140.302C84.9049 139.714 85.3669 139.257 85.9549 138.93C86.5429 138.603 87.2055 138.44 87.9429 138.44C88.6709 138.44 89.3195 138.603 89.8889 138.93C90.4675 139.247 90.9155 139.7 91.2329 140.288C91.5595 140.867 91.7229 141.539 91.7229 142.304ZM87.9429 139.84C87.3829 139.84 86.9069 140.008 86.5149 140.344C86.1322 140.671 85.8989 141.109 85.8149 141.66H90.0569C89.9822 141.119 89.7535 140.68 89.3709 140.344C88.9882 140.008 88.5122 139.84 87.9429 139.84ZM96.0548 138.44C97.1561 138.44 97.9961 138.706 98.5748 139.238C99.1628 139.761 99.4568 140.554 99.4568 141.618V146H97.8048V145.09C97.5901 145.417 97.2821 145.669 96.8808 145.846C96.4888 146.014 96.0128 146.098 95.4528 146.098C94.8928 146.098 94.4028 146.005 93.9828 145.818C93.5628 145.622 93.2361 145.356 93.0028 145.02C92.7788 144.675 92.6668 144.287 92.6668 143.858C92.6668 143.186 92.9141 142.649 93.4088 142.248C93.9128 141.837 94.7014 141.632 95.7748 141.632H97.7068V141.52C97.7068 140.997 97.5481 140.596 97.2308 140.316C96.9228 140.036 96.4608 139.896 95.8448 139.896C95.4248 139.896 95.0094 139.961 94.5988 140.092C94.1974 140.223 93.8568 140.405 93.5768 140.638L92.8908 139.364C93.2828 139.065 93.7541 138.837 94.3048 138.678C94.8554 138.519 95.4388 138.44 96.0548 138.44ZM95.8168 144.824C96.2554 144.824 96.6428 144.726 96.9788 144.53C97.3241 144.325 97.5668 144.035 97.7068 143.662V142.794H95.9008C94.8928 142.794 94.3888 143.125 94.3888 143.788C94.3888 144.105 94.5148 144.357 94.7668 144.544C95.0188 144.731 95.3688 144.824 95.8168 144.824ZM103.369 139.616C103.873 138.832 104.759 138.44 106.029 138.44V140.106C105.879 140.078 105.744 140.064 105.623 140.064C104.941 140.064 104.409 140.265 104.027 140.666C103.644 141.058 103.453 141.627 103.453 142.374V146H101.703V138.524H103.369V139.616ZM114.307 138.44C115.408 138.44 116.248 138.706 116.827 139.238C117.415 139.761 117.709 140.554 117.709 141.618V146H116.057V145.09C115.842 145.417 115.534 145.669 115.133 145.846C114.741 146.014 114.265 146.098 113.705 146.098C113.145 146.098 112.655 146.005 112.235 145.818C111.815 145.622 111.488 145.356 111.255 145.02C111.031 144.675 110.919 144.287 110.919 143.858C110.919 143.186 111.166 142.649 111.661 142.248C112.165 141.837 112.953 141.632 114.027 141.632H115.959V141.52C115.959 140.997 115.8 140.596 115.483 140.316C115.175 140.036 114.713 139.896 114.097 139.896C113.677 139.896 113.261 139.961 112.851 140.092C112.449 140.223 112.109 140.405 111.829 140.638L111.143 139.364C111.535 139.065 112.006 138.837 112.557 138.678C113.107 138.519 113.691 138.44 114.307 138.44ZM114.069 144.824C114.507 144.824 114.895 144.726 115.231 144.53C115.576 144.325 115.819 144.035 115.959 143.662V142.794H114.153C113.145 142.794 112.641 143.125 112.641 143.788C112.641 144.105 112.767 144.357 113.019 144.544C113.271 144.731 113.621 144.824 114.069 144.824ZM124.197 138.44C125.139 138.44 125.895 138.715 126.465 139.266C127.034 139.817 127.319 140.633 127.319 141.716V146H125.569V141.94C125.569 141.287 125.415 140.797 125.107 140.47C124.799 140.134 124.36 139.966 123.791 139.966C123.147 139.966 122.638 140.162 122.265 140.554C121.891 140.937 121.705 141.492 121.705 142.22V146H119.955V138.524H121.621V139.49C121.91 139.145 122.274 138.883 122.713 138.706C123.151 138.529 123.646 138.44 124.197 138.44ZM140.646 138.524V146H138.98V145.048C138.7 145.384 138.35 145.645 137.93 145.832C137.51 146.009 137.057 146.098 136.572 146.098C135.573 146.098 134.784 145.823 134.206 145.272C133.636 144.712 133.352 143.886 133.352 142.794V138.524H135.102V142.556C135.102 143.228 135.251 143.732 135.55 144.068C135.858 144.395 136.292 144.558 136.852 144.558C137.477 144.558 137.972 144.367 138.336 143.984C138.709 143.592 138.896 143.032 138.896 142.304V138.524H140.646ZM144.603 139.616C145.107 138.832 145.994 138.44 147.263 138.44V140.106C147.114 140.078 146.978 140.064 146.857 140.064C146.176 140.064 145.644 140.265 145.261 140.666C144.878 141.058 144.687 141.627 144.687 142.374V146H142.937V138.524H144.603V139.616ZM152.892 138.44C153.62 138.44 154.268 138.599 154.838 138.916C155.416 139.233 155.869 139.681 156.196 140.26C156.522 140.839 156.686 141.506 156.686 142.262C156.686 143.018 156.522 143.69 156.196 144.278C155.869 144.857 155.416 145.305 154.838 145.622C154.268 145.939 153.62 146.098 152.892 146.098C152.378 146.098 151.907 146.009 151.478 145.832C151.058 145.655 150.703 145.389 150.414 145.034V146H148.748V135.612H150.498V139.434C150.796 139.107 151.146 138.86 151.548 138.692C151.958 138.524 152.406 138.44 152.892 138.44ZM152.696 144.6C153.34 144.6 153.867 144.385 154.278 143.956C154.698 143.527 154.908 142.962 154.908 142.262C154.908 141.562 154.698 140.997 154.278 140.568C153.867 140.139 153.34 139.924 152.696 139.924C152.276 139.924 151.898 140.022 151.562 140.218C151.226 140.405 150.96 140.675 150.764 141.03C150.568 141.385 150.47 141.795 150.47 142.262C150.47 142.729 150.568 143.139 150.764 143.494C150.96 143.849 151.226 144.124 151.562 144.32C151.898 144.507 152.276 144.6 152.696 144.6ZM161.106 138.44C162.207 138.44 163.047 138.706 163.626 139.238C164.214 139.761 164.508 140.554 164.508 141.618V146H162.856V145.09C162.641 145.417 162.333 145.669 161.932 145.846C161.54 146.014 161.064 146.098 160.504 146.098C159.944 146.098 159.454 146.005 159.034 145.818C158.614 145.622 158.287 145.356 158.054 145.02C157.83 144.675 157.718 144.287 157.718 143.858C157.718 143.186 157.965 142.649 158.46 142.248C158.964 141.837 159.752 141.632 160.826 141.632H162.758V141.52C162.758 140.997 162.599 140.596 162.282 140.316C161.974 140.036 161.512 139.896 160.896 139.896C160.476 139.896 160.06 139.961 159.65 140.092C159.248 140.223 158.908 140.405 158.628 140.638L157.942 139.364C158.334 139.065 158.805 138.837 159.356 138.678C159.906 138.519 160.49 138.44 161.106 138.44ZM160.868 144.824C161.306 144.824 161.694 144.726 162.03 144.53C162.375 144.325 162.618 144.035 162.758 143.662V142.794H160.952C159.944 142.794 159.44 143.125 159.44 143.788C159.44 144.105 159.566 144.357 159.818 144.544C160.07 144.731 160.42 144.824 160.868 144.824ZM170.995 138.44C171.938 138.44 172.694 138.715 173.263 139.266C173.833 139.817 174.117 140.633 174.117 141.716V146H172.367V141.94C172.367 141.287 172.213 140.797 171.905 140.47C171.597 140.134 171.159 139.966 170.589 139.966C169.945 139.966 169.437 140.162 169.063 140.554C168.69 140.937 168.503 141.492 168.503 142.22V146H166.753V138.524H168.419V139.49C168.709 139.145 169.073 138.883 169.511 138.706C169.95 138.529 170.445 138.44 170.995 138.44ZM183.063 138.44C184.164 138.44 185.004 138.706 185.583 139.238C186.171 139.761 186.465 140.554 186.465 141.618V146H184.813V145.09C184.598 145.417 184.29 145.669 183.889 145.846C183.497 146.014 183.021 146.098 182.461 146.098C181.901 146.098 181.411 146.005 180.991 145.818C180.571 145.622 180.244 145.356 180.011 145.02C179.787 144.675 179.675 144.287 179.675 143.858C179.675 143.186 179.922 142.649 180.417 142.248C180.921 141.837 181.709 141.632 182.783 141.632H184.715V141.52C184.715 140.997 184.556 140.596 184.239 140.316C183.931 140.036 183.469 139.896 182.853 139.896C182.433 139.896 182.017 139.961 181.607 140.092C181.205 140.223 180.865 140.405 180.585 140.638L179.899 139.364C180.291 139.065 180.762 138.837 181.313 138.678C181.863 138.519 182.447 138.44 183.063 138.44ZM182.825 144.824C183.263 144.824 183.651 144.726 183.987 144.53C184.332 144.325 184.575 144.035 184.715 143.662V142.794H182.909C181.901 142.794 181.397 143.125 181.397 143.788C181.397 144.105 181.523 144.357 181.775 144.544C182.027 144.731 182.377 144.824 182.825 144.824ZM190.377 139.616C190.881 138.832 191.767 138.44 193.037 138.44V140.106C192.887 140.078 192.752 140.064 192.631 140.064C191.949 140.064 191.417 140.265 191.035 140.666C190.652 141.058 190.461 141.627 190.461 142.374V146H188.711V138.524H190.377V139.616ZM201.481 142.304C201.481 142.425 201.471 142.598 201.453 142.822H195.587C195.689 143.373 195.955 143.811 196.385 144.138C196.823 144.455 197.365 144.614 198.009 144.614C198.83 144.614 199.507 144.343 200.039 143.802L200.977 144.88C200.641 145.281 200.216 145.585 199.703 145.79C199.189 145.995 198.611 146.098 197.967 146.098C197.145 146.098 196.422 145.935 195.797 145.608C195.171 145.281 194.686 144.829 194.341 144.25C194.005 143.662 193.837 142.999 193.837 142.262C193.837 141.534 194 140.881 194.327 140.302C194.663 139.714 195.125 139.257 195.713 138.93C196.301 138.603 196.963 138.44 197.701 138.44C198.429 138.44 199.077 138.603 199.647 138.93C200.225 139.247 200.673 139.7 200.991 140.288C201.317 140.867 201.481 141.539 201.481 142.304ZM197.701 139.84C197.141 139.84 196.665 140.008 196.273 140.344C195.89 140.671 195.657 141.109 195.573 141.66H199.815C199.74 141.119 199.511 140.68 199.129 140.344C198.746 140.008 198.27 139.84 197.701 139.84ZM205.813 138.44C206.914 138.44 207.754 138.706 208.333 139.238C208.921 139.761 209.215 140.554 209.215 141.618V146H207.563V145.09C207.348 145.417 207.04 145.669 206.639 145.846C206.247 146.014 205.771 146.098 205.211 146.098C204.651 146.098 204.161 146.005 203.741 145.818C203.321 145.622 202.994 145.356 202.761 145.02C202.537 144.675 202.425 144.287 202.425 143.858C202.425 143.186 202.672 142.649 203.167 142.248C203.671 141.837 204.459 141.632 205.533 141.632H207.465V141.52C207.465 140.997 207.306 140.596 206.989 140.316C206.681 140.036 206.219 139.896 205.603 139.896C205.183 139.896 204.767 139.961 204.357 140.092C203.955 140.223 203.615 140.405 203.335 140.638L202.649 139.364C203.041 139.065 203.512 138.837 204.063 138.678C204.613 138.519 205.197 138.44 205.813 138.44ZM205.575 144.824C206.013 144.824 206.401 144.726 206.737 144.53C207.082 144.325 207.325 144.035 207.465 143.662V142.794H205.659C204.651 142.794 204.147 143.125 204.147 143.788C204.147 144.105 204.273 144.357 204.525 144.544C204.777 144.731 205.127 144.824 205.575 144.824Z" fill="white"/>
<path d="M216.963 103.746C216.944 102.177 216.09 100.671 214.768 99.8672C214.774 98.9037 214.781 97.9339 214.665 96.9769C214.389 94.6799 213.696 92.4723 212.482 90.488C211.859 89.4671 211.108 88.51 210.274 87.6551C210.254 87.6295 210.235 87.604 210.209 87.5849C210.184 87.5657 210.152 87.5402 210.152 87.5147C207.776 85.1795 204.663 83.5652 201.35 83.0994C199.726 82.8698 198.082 82.8761 196.483 83.1186C195.777 81.7532 194.769 80.5281 193.537 79.5711C192.657 78.8884 191.758 78.3397 190.725 77.9058C189.652 77.4592 188.574 77.2039 187.425 77.0699C183.797 76.6488 179.965 78.1546 177.576 80.8982C176.511 82.1232 175.67 83.5525 175.182 85.0965C172.652 85.4602 170.187 86.3598 168.049 87.7316C165.109 89.6139 162.662 92.3447 161.263 95.5413C160.473 97.3533 159.992 99.1781 159.78 101.143C159.664 102.228 159.69 103.325 159.696 104.416C158.579 105.003 157.7 105.98 157.257 107.256C157.026 107.926 157 108.615 157 109.317V116.297C157 117.177 157.135 118.007 157.507 118.817C158.059 120.004 159.157 120.954 160.403 121.382V122.601C160.403 122.92 160.403 123.239 160.441 123.558C160.544 124.451 160.923 125.293 161.59 125.918C162.855 127.112 164.897 127.38 166.36 126.378C167.118 125.861 167.677 125.115 167.921 124.228C168.043 123.787 168.049 123.341 168.049 122.888V121.656H187.438V122.613C187.438 122.932 187.425 123.251 187.463 123.564C187.566 124.457 187.938 125.3 188.606 125.925C189.871 127.118 191.906 127.386 193.376 126.384C194.134 125.867 194.699 125.121 194.949 124.234C195.071 123.794 195.09 123.341 195.09 122.894V121.395C196.483 120.916 197.588 119.857 198.172 118.441C198.506 117.618 198.493 116.743 198.493 115.869V115.021H207.096V115.697C207.096 116.061 207.109 116.399 207.166 116.769C207.282 117.477 207.667 118.179 208.2 118.658C209.362 119.71 211.224 119.966 212.534 119.015C213.195 118.536 213.683 117.898 213.907 117.107C214.017 116.711 214.029 116.303 214.029 115.895V114.714C215.448 114.185 216.591 113.011 216.886 111.473C217.034 110.695 216.995 109.897 216.995 109.106C216.963 107.32 216.983 105.533 216.963 103.746ZM179.83 84.2033C179.907 84.082 179.99 83.9672 180.074 83.8523C180.099 83.8204 180.119 83.7949 180.144 83.763C180.337 83.5333 180.542 83.31 180.754 83.0994C180.966 82.8889 181.191 82.6847 181.422 82.4933C181.448 82.4678 181.48 82.4486 181.505 82.4231C181.615 82.3466 181.717 82.27 181.826 82.1998C182.269 81.8999 182.738 81.6447 183.226 81.4214C183.868 81.1726 184.536 80.9939 185.216 80.8791C185.903 80.8089 186.596 80.8089 187.283 80.8791C187.958 80.9875 188.612 81.1662 189.254 81.4086C189.704 81.6128 190.134 81.8425 190.545 82.1105C190.635 82.1679 190.718 82.2253 190.808 82.2891C190.789 82.2764 190.827 82.3083 191.02 82.4423C191.232 82.6145 191.431 82.7932 191.623 82.9782C191.835 83.1824 192.041 83.3993 192.233 83.6226C192.285 83.6801 192.33 83.7375 192.381 83.8013C192.381 83.8077 192.387 83.8077 192.387 83.8141C192.4 83.8332 192.413 83.846 192.419 83.8587C192.471 83.9289 192.522 83.9991 192.574 84.0757C192.599 84.1139 192.625 84.1522 192.651 84.1905C191.867 84.5287 191.11 84.9242 190.391 85.3836C190.378 85.39 190.371 85.3964 190.359 85.4028C190.359 85.4028 190.359 85.4028 190.352 85.4028C190.32 85.4219 190.294 85.4411 190.262 85.4602C189.248 86.111 188.317 86.8767 187.482 87.7444C185.056 86.1812 182.231 85.2369 179.348 84.9817C179.502 84.7137 179.663 84.4585 179.83 84.2033ZM163.619 100.977C163.812 99.746 164.139 98.5401 164.608 97.3852C164.897 96.7408 165.218 96.1155 165.59 95.5157C165.802 95.1648 166.033 94.8267 166.271 94.4949C166.303 94.4438 166.341 94.3992 166.38 94.3481C166.36 94.3736 166.348 94.3864 166.354 94.38C166.418 94.2141 166.643 94.0227 166.752 93.8887C167.259 93.289 167.818 92.7275 168.408 92.2107C168.556 92.0831 168.704 91.9555 168.858 91.8279C168.922 91.7768 168.986 91.7258 169.05 91.6747C169.365 91.4387 169.686 91.2217 170.013 91.0112C170.713 90.5645 171.439 90.1817 172.196 89.8436C173.365 89.3778 174.585 89.046 175.83 88.8546C175.74 88.8673 175.65 88.8737 175.554 88.8865C175.727 88.861 175.894 88.8418 176.068 88.8163C175.991 88.8291 175.907 88.8418 175.83 88.8482C176.048 88.8227 176.267 88.8035 176.485 88.7844C176.414 88.7716 176.344 88.7589 176.273 88.7397C176.267 88.7397 176.254 88.7334 176.241 88.7334C176.215 88.7206 176.183 88.7078 176.157 88.7015C176.196 88.7142 176.235 88.727 176.273 88.7334C176.299 88.7397 176.324 88.7461 176.35 88.7525H176.356C176.376 88.7589 176.395 88.7589 176.421 88.7653C176.427 88.7653 176.44 88.7653 176.446 88.7653C176.466 88.7653 176.491 88.7716 176.511 88.7716C176.536 88.7716 176.562 88.7716 176.594 88.778C176.633 88.778 176.665 88.778 176.703 88.778C176.71 88.778 176.71 88.778 176.716 88.778C176.889 88.7653 177.069 88.7589 177.242 88.7525C177.249 88.7525 177.255 88.7525 177.262 88.7525C177.268 88.7525 177.275 88.7525 177.281 88.7525C177.345 88.7525 177.403 88.7525 177.467 88.7525C177.48 88.7525 177.499 88.7525 177.512 88.7525C177.563 88.7525 177.621 88.7461 177.673 88.7461L177.679 88.7397C177.692 88.7397 177.705 88.7461 177.718 88.7461C177.801 88.7461 177.891 88.7461 177.974 88.7525C177.994 88.7525 178.006 88.7525 178.026 88.7525C178.148 88.7525 178.27 88.7589 178.385 88.7653C178.443 88.7653 178.507 88.7716 178.565 88.7716C178.867 88.7844 179.168 88.8099 179.464 88.8418C179.528 88.8482 179.599 88.8546 179.663 88.8673L179.669 88.8737C179.721 88.8801 179.766 88.8865 179.817 88.8992C179.855 88.9056 179.9 88.912 179.939 88.9184C179.9 88.912 179.862 88.9056 179.823 88.8992C180.164 88.9503 180.504 89.0077 180.838 89.0843C181.672 89.2757 182.468 89.5118 183.303 89.8308V89.8436C183.29 89.8372 183.284 89.8372 183.277 89.8308C183.277 89.8308 183.277 89.8308 183.277 89.8372C183.297 89.8435 183.316 89.8563 183.335 89.8691C183.348 89.8755 183.354 89.8818 183.367 89.8882C183.386 89.8946 183.399 89.9074 183.419 89.9137C183.438 89.9201 183.451 89.9265 183.47 89.9393C183.528 89.9648 183.585 89.9903 183.643 90.0222C183.656 90.0286 183.663 90.035 183.675 90.035C183.733 90.0605 183.784 90.086 183.842 90.1115C183.849 90.1115 183.849 90.1179 183.855 90.1179C183.9 90.1371 183.945 90.1626 183.99 90.1881C184.003 90.1945 184.022 90.2072 184.035 90.2136C184.067 90.2328 184.099 90.2455 184.131 90.2647C184.195 90.2966 184.253 90.3285 184.317 90.3604C184.349 90.3795 184.382 90.3923 184.407 90.4114C184.427 90.4114 184.446 90.4178 184.465 90.4242C184.471 90.4305 184.478 90.4306 184.484 90.4369C184.504 90.4497 184.523 90.4625 184.542 90.4752C184.555 90.488 184.574 90.4944 184.587 90.5071C184.6 90.5135 184.613 90.5199 184.619 90.5263C184.651 90.5454 184.69 90.5582 184.722 90.5837C184.767 90.6092 184.812 90.6347 184.857 90.6602C184.889 90.6794 184.927 90.6985 184.959 90.724C185.011 90.756 185.062 90.7879 185.113 90.8134C185.12 90.8134 185.12 90.8198 185.126 90.8198C185.184 90.8517 185.235 90.8836 185.293 90.9218C185.415 90.9984 185.537 91.075 185.653 91.1515C185.711 91.1898 185.768 91.2281 185.826 91.2664C185.884 91.3047 185.942 91.3429 185.999 91.3812C186.032 91.4004 186.057 91.4195 186.089 91.4387C186.153 91.4769 186.224 91.5152 186.288 91.5471C186.327 91.5918 186.365 91.6364 186.41 91.6684C186.41 91.6684 186.41 91.6684 186.417 91.6747C186.423 91.6811 186.423 91.6811 186.43 91.6811C186.43 91.6811 186.436 91.6875 186.442 91.6875L186.455 91.6939C186.455 91.6939 186.455 91.6939 186.455 91.7003C186.507 91.7385 186.552 91.7832 186.603 91.8215V91.8087C186.609 91.8151 186.616 91.8087 186.616 91.8087C186.622 91.8087 186.622 91.8279 186.629 91.8342C186.635 91.8406 186.641 91.8534 186.648 91.8534C186.674 91.8725 186.699 91.898 186.731 91.9236C186.731 91.9236 186.731 91.9299 186.738 91.9299C186.757 91.9427 186.776 91.9618 186.796 91.9746C186.815 91.9938 186.84 92.0129 186.86 92.0257C186.924 92.0831 186.995 92.1405 187.059 92.1979C187.194 92.3128 187.322 92.434 187.45 92.5552C187.515 92.619 187.579 92.6765 187.643 92.7403C187.707 92.8041 187.771 92.8615 187.836 92.9253C187.861 92.9508 187.887 92.9763 187.913 93.0019C187.932 93.021 187.945 93.0338 187.964 93.0529C187.983 93.072 188.002 93.0912 188.022 93.1103C188.067 93.155 188.105 93.1933 188.144 93.2379C188.15 93.2443 188.157 93.2507 188.163 93.2635C188.208 93.3081 188.246 93.3528 188.285 93.3974C188.323 93.4357 188.362 93.4804 188.401 93.5187C188.484 93.6144 188.567 93.7101 188.651 93.8058C188.709 93.876 188.773 93.9462 188.831 94.0163C188.863 94.0546 188.895 94.0929 188.927 94.1312C188.933 94.1376 188.94 94.144 188.946 94.1503C188.959 94.1695 188.972 94.1822 188.991 94.2014C188.998 94.2078 189.004 94.2205 189.01 94.2269C189.017 94.2397 189.03 94.2524 189.036 94.2652L189.049 94.2843C189.049 94.2843 189.049 94.2907 189.055 94.2907C189.068 94.3035 189.075 94.3162 189.087 94.329C189.081 94.3162 189.068 94.3098 189.062 94.3035C189.068 94.3098 189.068 94.3162 189.075 94.3226C189.081 94.329 189.081 94.3354 189.087 94.3354C189.087 94.3417 189.094 94.3417 189.1 94.3481C189.126 94.3864 189.152 94.4183 189.177 94.4566C189.254 94.5651 189.331 94.6735 189.402 94.782C189.428 94.8139 189.447 94.8522 189.473 94.8841L189.479 94.8905C189.492 94.9096 189.505 94.9287 189.518 94.9479C189.537 94.9798 189.563 95.0181 189.582 95.05C189.627 95.1138 189.672 95.184 189.71 95.2541C189.755 95.318 189.794 95.3881 189.839 95.4583C189.871 95.5094 189.903 95.5604 189.935 95.6114C190.089 95.8667 190.237 96.1283 190.371 96.3899C190.429 96.4983 190.481 96.6004 190.532 96.7089C190.596 96.8365 190.654 96.9577 190.718 97.0853C190.731 97.1172 190.75 97.1491 190.763 97.1874C190.789 97.2448 190.821 97.3086 190.847 97.3661C190.814 97.2831 190.782 97.2002 190.744 97.1172C190.808 97.2704 190.872 97.4235 190.936 97.5766C190.904 97.5064 190.879 97.4426 190.847 97.3724C190.879 97.4426 190.904 97.5192 190.93 97.5894C190.962 97.6659 190.994 97.7489 191.02 97.8255C191.052 97.9084 191.078 97.985 191.103 98.0679C191.123 98.1126 191.135 98.1572 191.148 98.2019C191.174 98.2785 191.2 98.3486 191.225 98.4252C191.238 98.4635 191.251 98.5018 191.264 98.5401C191.27 98.5656 191.283 98.5975 191.29 98.623C191.309 98.6741 191.322 98.7315 191.341 98.7825C191.347 98.8017 191.354 98.8208 191.36 98.8399C191.373 98.8718 191.379 98.9101 191.392 98.942C191.418 99.0186 191.437 99.0952 191.456 99.1781C191.476 99.2547 191.495 99.3312 191.514 99.4014C191.534 99.4844 191.559 99.5673 191.578 99.6503C191.585 99.663 191.585 99.6694 191.585 99.6822C191.604 99.7523 191.617 99.8289 191.636 99.8991C191.643 99.9119 191.643 99.931 191.649 99.9438C191.662 100.001 191.675 100.059 191.688 100.116C191.694 100.148 191.7 100.18 191.707 100.212C191.713 100.256 191.726 100.295 191.733 100.339C191.739 100.384 191.752 100.429 191.758 100.473C191.765 100.512 191.771 100.544 191.777 100.582C191.777 100.588 191.784 100.601 191.784 100.614C191.79 100.652 191.797 100.697 191.803 100.735C191.803 100.754 191.81 100.767 191.81 100.786C191.816 100.843 191.829 100.901 191.835 100.952V100.958C191.906 101.59 191.944 102.228 191.951 102.866C191.951 102.936 191.957 103.006 191.964 103.077V103.14H165.815C165.044 103.14 164.274 103.134 163.51 103.134C163.51 102.419 163.542 101.698 163.619 100.977ZM169.224 113.03C169.14 114.638 167.991 116.118 166.36 116.437C164.832 116.737 163.266 116.093 162.457 114.753C161.642 113.406 161.854 111.709 162.849 110.522C163.773 109.425 165.423 108.985 166.771 109.476C168.209 109.999 169.166 111.288 169.23 112.807C169.23 112.813 169.23 112.819 169.23 112.826C169.23 112.851 169.23 112.877 169.23 112.896C169.23 112.941 169.224 112.985 169.224 113.03ZM182.744 113.745H172.723C172.004 113.745 171.471 113.158 171.439 112.469C171.407 111.779 172.049 111.192 172.723 111.192H182.744C183.463 111.192 183.996 111.779 184.028 112.469C184.061 113.158 183.419 113.745 182.744 113.745ZM193.569 113.036C193.472 114.702 192.259 116.207 190.551 116.463C188.985 116.692 187.322 115.959 186.654 114.472C186.025 113.068 186.25 111.365 187.418 110.293C188.535 109.259 190.121 109.029 191.501 109.648C192.74 110.203 193.511 111.473 193.575 112.8C193.575 112.839 193.575 112.877 193.582 112.909C193.575 112.947 193.575 112.992 193.569 113.036ZM203.237 108.194H198.397C198.339 107.721 198.242 107.262 198.056 106.815C198.043 106.79 198.037 106.764 198.024 106.739C198.018 106.726 198.011 106.713 198.005 106.701C197.966 106.618 197.928 106.528 197.883 106.445C197.883 106.439 197.877 106.433 197.877 106.433V106.426C197.87 106.413 197.864 106.401 197.857 106.388C197.819 106.318 197.78 106.248 197.735 106.184C197.735 106.177 197.729 106.177 197.729 106.171C197.71 106.139 197.69 106.114 197.671 106.082C197.568 105.929 197.459 105.782 197.344 105.641H203.237C203.956 105.641 204.489 106.228 204.521 106.918C204.553 107.607 203.911 108.194 203.237 108.194ZM210.749 98.623H195.289C194.654 96.0453 193.46 93.6271 191.771 91.5471C191.72 91.4769 191.662 91.4131 191.604 91.3493C191.585 91.3302 191.572 91.3047 191.553 91.2855C191.534 91.2664 191.514 91.2409 191.501 91.2217C191.463 91.1771 191.424 91.1324 191.386 91.0877C191.11 90.7687 190.814 90.4625 190.513 90.1626C190.513 90.1626 190.513 90.1626 190.519 90.1562C190.564 90.1115 190.603 90.0732 190.648 90.0286C190.648 90.0286 190.654 90.0286 190.654 90.0222C190.667 90.0094 190.673 90.0031 190.686 89.9903C190.692 89.9839 190.699 89.9775 190.705 89.9712C190.75 89.9265 190.795 89.8882 190.84 89.8436C190.859 89.8244 190.885 89.8053 190.904 89.7797C190.943 89.7478 190.981 89.7096 191.02 89.6777C191.071 89.633 191.123 89.582 191.18 89.5373C191.193 89.5309 191.2 89.5182 191.213 89.5118C191.238 89.4926 191.264 89.4671 191.29 89.448C191.302 89.4352 191.315 89.4224 191.334 89.4161L191.341 89.4097C191.347 89.4033 191.36 89.3905 191.367 89.3842C191.392 89.365 191.418 89.3395 191.444 89.3204C191.469 89.3012 191.495 89.2757 191.521 89.2566C191.527 89.2502 191.546 89.2374 191.566 89.2247C191.572 89.2247 191.572 89.2183 191.578 89.2119C191.585 89.2055 191.585 89.2055 191.591 89.1991C191.598 89.1991 191.598 89.1864 191.604 89.18V89.1672C191.611 89.1672 191.617 89.1672 191.623 89.1608C191.623 89.1608 191.617 89.1608 191.617 89.1672H191.623C191.63 89.1672 191.643 89.1545 191.649 89.1481C191.649 89.1481 191.649 89.1481 191.655 89.1417C191.655 89.1417 191.655 89.1417 191.649 89.1417C191.655 89.1353 191.662 89.1289 191.675 89.1226C191.688 89.1162 191.7 89.1034 191.713 89.097C191.726 89.0907 191.739 89.0779 191.752 89.0715C191.79 89.0396 191.829 89.0141 191.867 88.9886C191.874 88.9822 191.88 88.9822 191.887 88.9758C191.964 88.9184 192.041 88.8673 192.118 88.8163C192.156 88.7908 192.201 88.7589 192.24 88.7334C192.265 88.7142 192.291 88.7015 192.317 88.6823C192.452 88.593 192.593 88.5037 192.734 88.4207C192.773 88.3952 192.811 88.3761 192.85 88.3505C192.927 88.3059 193.01 88.2612 193.087 88.2165C193.164 88.1719 193.248 88.1272 193.331 88.0889C193.415 88.0443 193.492 88.006 193.575 87.9613C193.614 87.9422 193.659 87.9167 193.697 87.8975C193.736 87.8784 193.781 87.8592 193.819 87.8401C193.825 87.8401 193.832 87.8337 193.832 87.8337C193.845 87.8273 193.858 87.821 193.87 87.8146C193.89 87.8082 193.909 87.7954 193.922 87.7891C193.973 87.7635 194.024 87.738 194.082 87.7125C194.14 87.687 194.198 87.6614 194.249 87.6359H194.256C194.313 87.6168 194.365 87.5913 194.423 87.5721C194.57 87.5147 194.718 87.4637 194.866 87.4126C194.975 87.3743 195.077 87.3424 195.187 87.3041H195.193C195.886 87.0872 196.599 86.9213 197.318 86.8065C197.324 86.8065 197.324 86.8065 197.324 86.8065C198.397 86.6852 199.475 86.6852 200.547 86.8065C201.587 86.966 202.602 87.2467 203.578 87.6295C204.309 87.9549 205.016 88.3378 205.683 88.7844C205.85 88.8992 206.017 89.0141 206.184 89.1353C206.479 89.3905 206.396 89.3076 206.3 89.2247C206.338 89.2502 206.377 89.2821 206.409 89.314C206.749 89.5947 207.083 89.8946 207.397 90.2072C207.699 90.5071 207.988 90.8261 208.264 91.1515C208.296 91.1962 208.335 91.2345 208.373 91.2791C208.399 91.311 208.425 91.3493 208.45 91.3876C208.579 91.5599 208.701 91.7322 208.823 91.9108C209.266 92.568 209.651 93.2635 209.972 93.9844C210.364 94.9606 210.64 95.9751 210.807 97.0151C210.864 97.5447 210.89 98.0807 210.903 98.6102C210.858 98.623 210.8 98.623 210.749 98.623Z" fill="#1266F1"/>
</svg>
