<svg width="238" height="159" viewBox="0 0 238 159" fill="none" xmlns="http://www.w3.org/2000/svg">
<path d="M47.6094 113.554H84.9287V88.8855H47.6094V113.554ZM76.4439 92.4188C76.9385 91.9242 77.7381 91.9242 78.2327 92.4188L81.3953 95.5815C81.89 96.0761 81.89 96.8756 81.3953 97.3703C81.1487 97.6169 80.8248 97.7409 80.5009 97.7409C80.1771 97.7409 79.8532 97.6169 79.6065 97.3703L76.4439 94.2076C75.9493 93.713 75.9493 92.9134 76.4439 92.4188ZM70.1186 92.4188C70.6132 91.9242 71.4128 91.9242 71.9074 92.4188L81.3953 101.907C81.89 102.401 81.89 103.201 81.3953 103.696C81.1487 103.942 80.8248 104.066 80.5009 104.066C80.1771 104.066 79.8532 103.942 79.6065 103.696L70.1186 94.2076C69.624 93.713 69.624 92.9134 70.1186 92.4188Z" fill="#686868"/>
<path d="M131.102 126.205H124.777V77.691C128.555 75.5037 131.102 71.4265 131.102 66.747C131.102 63.573 121.614 41.4458 121.614 41.4458H39.3855C39.3855 41.4458 29.8976 63.573 29.8976 66.747C29.8976 71.4265 32.4454 75.5037 36.2229 77.691V126.205H29.8976C28.8501 126.205 28 127.055 28 128.102C28 129.15 28.8501 130 29.8976 130H98.2108H116.554H131.102C132.15 130 133 129.15 133 128.102C133 127.055 132.15 126.205 131.102 126.205ZM88.7229 114.187C88.7229 115.931 87.3048 117.349 85.5602 117.349H46.9759C45.2326 117.349 43.8133 115.931 43.8133 114.187V88.253C43.8133 86.5085 45.2326 85.0904 46.9759 85.0904H85.5602C87.3048 85.0904 88.7229 86.5085 88.7229 88.253V114.187ZM105.801 107.861H102.639C101.591 107.861 100.741 107.011 100.741 105.964C100.741 104.916 101.591 104.066 102.639 104.066H105.801C106.849 104.066 107.699 104.916 107.699 105.964C107.699 107.011 106.849 107.861 105.801 107.861ZM120.349 124.94H116.554V85.7229H98.2108V124.94H94.4157V85.0904C94.4157 83.3459 95.8338 81.9277 97.5783 81.9277H117.187C118.931 81.9277 120.349 83.3459 120.349 85.0904V124.94Z" fill="#686868"/>
<path fill-rule="evenodd" clip-rule="evenodd" d="M117 85H98V125H117V85ZM102 105C101.448 105 101 105.448 101 106C101 106.552 101.448 107 102 107H106C106.552 107 107 106.552 107 106C107 105.448 106.552 105 106 105H102Z" fill="#F0B829"/>
<rect x="2" y="2" width="234" height="151" rx="28" stroke="#686868" stroke-width="4"/>
<path d="M235.927 128C234.904 141.978 223.239 153 209 153H29C14.761 153 3.0964 141.978 2.07295 128H235.927Z" fill="#686868" stroke="#686868" stroke-width="4"/>
<path d="M52.728 146L50.726 143.13C50.642 143.139 50.516 143.144 50.348 143.144H48.136V146H46.316V136.2H50.348C51.1973 136.2 51.9347 136.34 52.56 136.62C53.1947 136.9 53.68 137.301 54.016 137.824C54.352 138.347 54.52 138.967 54.52 139.686C54.52 140.423 54.338 141.058 53.974 141.59C53.6193 142.122 53.106 142.519 52.434 142.78L54.688 146H52.728ZM52.686 139.686C52.686 139.061 52.4807 138.58 52.07 138.244C51.6593 137.908 51.0573 137.74 50.264 137.74H48.136V141.646H50.264C51.0573 141.646 51.6593 141.478 52.07 141.142C52.4807 140.797 52.686 140.311 52.686 139.686ZM59.7482 146.098C58.9922 146.098 58.3109 145.935 57.7042 145.608C57.0976 145.281 56.6216 144.829 56.2762 144.25C55.9402 143.662 55.7722 142.999 55.7722 142.262C55.7722 141.525 55.9402 140.867 56.2762 140.288C56.6216 139.709 57.0976 139.257 57.7042 138.93C58.3109 138.603 58.9922 138.44 59.7482 138.44C60.5136 138.44 61.1996 138.603 61.8062 138.93C62.4129 139.257 62.8842 139.709 63.2202 140.288C63.5656 140.867 63.7382 141.525 63.7382 142.262C63.7382 142.999 63.5656 143.662 63.2202 144.25C62.8842 144.829 62.4129 145.281 61.8062 145.608C61.1996 145.935 60.5136 146.098 59.7482 146.098ZM59.7482 144.6C60.3922 144.6 60.9242 144.385 61.3442 143.956C61.7642 143.527 61.9742 142.962 61.9742 142.262C61.9742 141.562 61.7642 140.997 61.3442 140.568C60.9242 140.139 60.3922 139.924 59.7482 139.924C59.1042 139.924 58.5722 140.139 58.1522 140.568C57.7416 140.997 57.5362 141.562 57.5362 142.262C57.5362 142.962 57.7416 143.527 58.1522 143.956C58.5722 144.385 59.1042 144.6 59.7482 144.6ZM68.7717 146.098C68.0157 146.098 67.3343 145.935 66.7277 145.608C66.121 145.281 65.645 144.829 65.2997 144.25C64.9637 143.662 64.7957 142.999 64.7957 142.262C64.7957 141.525 64.9637 140.867 65.2997 140.288C65.645 139.709 66.121 139.257 66.7277 138.93C67.3343 138.603 68.0157 138.44 68.7717 138.44C69.537 138.44 70.223 138.603 70.8297 138.93C71.4363 139.257 71.9077 139.709 72.2437 140.288C72.589 140.867 72.7617 141.525 72.7617 142.262C72.7617 142.999 72.589 143.662 72.2437 144.25C71.9077 144.829 71.4363 145.281 70.8297 145.608C70.223 145.935 69.537 146.098 68.7717 146.098ZM68.7717 144.6C69.4157 144.6 69.9477 144.385 70.3677 143.956C70.7877 143.527 70.9977 142.962 70.9977 142.262C70.9977 141.562 70.7877 140.997 70.3677 140.568C69.9477 140.139 69.4157 139.924 68.7717 139.924C68.1277 139.924 67.5957 140.139 67.1757 140.568C66.765 140.997 66.5597 141.562 66.5597 142.262C66.5597 142.962 66.765 143.527 67.1757 143.956C67.5957 144.385 68.1277 144.6 68.7717 144.6ZM83.8711 138.44C84.8138 138.44 85.5604 138.715 86.1111 139.266C86.6618 139.807 86.9371 140.624 86.9371 141.716V146H85.1871V141.94C85.1871 141.287 85.0424 140.797 84.7531 140.47C84.4638 140.134 84.0484 139.966 83.5071 139.966C82.9191 139.966 82.4478 140.162 82.0931 140.554C81.7384 140.937 81.5611 141.487 81.5611 142.206V146H79.8111V141.94C79.8111 141.287 79.6664 140.797 79.3771 140.47C79.0878 140.134 78.6724 139.966 78.1311 139.966C77.5338 139.966 77.0578 140.157 76.7031 140.54C76.3578 140.923 76.1851 141.478 76.1851 142.206V146H74.4351V138.524H76.1011V139.476C76.3811 139.14 76.7311 138.883 77.1511 138.706C77.5711 138.529 78.0378 138.44 78.5511 138.44C79.1111 138.44 79.6058 138.547 80.0351 138.762C80.4738 138.967 80.8191 139.275 81.0711 139.686C81.3791 139.294 81.7758 138.991 82.2611 138.776C82.7464 138.552 83.2831 138.44 83.8711 138.44ZM97.2845 138.44C98.2272 138.44 98.9832 138.715 99.5525 139.266C100.122 139.817 100.407 140.633 100.407 141.716V146H98.6565V141.94C98.6565 141.287 98.5025 140.797 98.1945 140.47C97.8865 140.134 97.4479 139.966 96.8785 139.966C96.2345 139.966 95.7259 140.162 95.3525 140.554C94.9792 140.937 94.7925 141.492 94.7925 142.22V146H93.0425V138.524H94.7085V139.49C94.9979 139.145 95.3619 138.883 95.8005 138.706C96.2392 138.529 96.7339 138.44 97.2845 138.44ZM109.723 142.304C109.723 142.425 109.714 142.598 109.695 142.822H103.829C103.932 143.373 104.198 143.811 104.627 144.138C105.066 144.455 105.607 144.614 106.251 144.614C107.072 144.614 107.749 144.343 108.281 143.802L109.219 144.88C108.883 145.281 108.458 145.585 107.945 145.79C107.432 145.995 106.853 146.098 106.209 146.098C105.388 146.098 104.664 145.935 104.039 145.608C103.414 145.281 102.928 144.829 102.583 144.25C102.247 143.662 102.079 142.999 102.079 142.262C102.079 141.534 102.242 140.881 102.569 140.302C102.905 139.714 103.367 139.257 103.955 138.93C104.543 138.603 105.206 138.44 105.943 138.44C106.671 138.44 107.32 138.603 107.889 138.93C108.468 139.247 108.916 139.7 109.233 140.288C109.56 140.867 109.723 141.539 109.723 142.304ZM105.943 139.84C105.383 139.84 104.907 140.008 104.515 140.344C104.132 140.671 103.899 141.109 103.815 141.66H108.057C107.982 141.119 107.754 140.68 107.371 140.344C106.988 140.008 106.512 139.84 105.943 139.84ZM114.055 138.44C115.156 138.44 115.996 138.706 116.575 139.238C117.163 139.761 117.457 140.554 117.457 141.618V146H115.805V145.09C115.59 145.417 115.282 145.669 114.881 145.846C114.489 146.014 114.013 146.098 113.453 146.098C112.893 146.098 112.403 146.005 111.983 145.818C111.563 145.622 111.236 145.356 111.003 145.02C110.779 144.675 110.667 144.287 110.667 143.858C110.667 143.186 110.914 142.649 111.409 142.248C111.913 141.837 112.701 141.632 113.775 141.632H115.707V141.52C115.707 140.997 115.548 140.596 115.231 140.316C114.923 140.036 114.461 139.896 113.845 139.896C113.425 139.896 113.009 139.961 112.599 140.092C112.197 140.223 111.857 140.405 111.577 140.638L110.891 139.364C111.283 139.065 111.754 138.837 112.305 138.678C112.855 138.519 113.439 138.44 114.055 138.44ZM113.817 144.824C114.255 144.824 114.643 144.726 114.979 144.53C115.324 144.325 115.567 144.035 115.707 143.662V142.794H113.901C112.893 142.794 112.389 143.125 112.389 143.788C112.389 144.105 112.515 144.357 112.767 144.544C113.019 144.731 113.369 144.824 113.817 144.824ZM121.369 139.616C121.873 138.832 122.759 138.44 124.029 138.44V140.106C123.879 140.078 123.744 140.064 123.623 140.064C122.941 140.064 122.409 140.265 122.027 140.666C121.644 141.058 121.453 141.627 121.453 142.374V146H119.703V138.524H121.369V139.616ZM133.693 138.44C134.635 138.44 135.391 138.715 135.961 139.266C136.53 139.817 136.815 140.633 136.815 141.716V146H135.065V141.94C135.065 141.287 134.911 140.797 134.603 140.47C134.295 140.134 133.856 139.966 133.287 139.966C132.643 139.966 132.134 140.162 131.761 140.554C131.387 140.937 131.201 141.492 131.201 142.22V146H129.451V138.524H131.117V139.49C131.406 139.145 131.77 138.883 132.209 138.706C132.647 138.529 133.142 138.44 133.693 138.44ZM142.463 146.098C141.707 146.098 141.026 145.935 140.419 145.608C139.812 145.281 139.336 144.829 138.991 144.25C138.655 143.662 138.487 142.999 138.487 142.262C138.487 141.525 138.655 140.867 138.991 140.288C139.336 139.709 139.812 139.257 140.419 138.93C141.026 138.603 141.707 138.44 142.463 138.44C143.228 138.44 143.914 138.603 144.521 138.93C145.128 139.257 145.599 139.709 145.935 140.288C146.28 140.867 146.453 141.525 146.453 142.262C146.453 142.999 146.28 143.662 145.935 144.25C145.599 144.829 145.128 145.281 144.521 145.608C143.914 145.935 143.228 146.098 142.463 146.098ZM142.463 144.6C143.107 144.6 143.639 144.385 144.059 143.956C144.479 143.527 144.689 142.962 144.689 142.262C144.689 141.562 144.479 140.997 144.059 140.568C143.639 140.139 143.107 139.924 142.463 139.924C141.819 139.924 141.287 140.139 140.867 140.568C140.456 140.997 140.251 141.562 140.251 142.262C140.251 142.962 140.456 143.527 140.867 143.956C141.287 144.385 141.819 144.6 142.463 144.6ZM159.583 138.524L156.825 146H155.145L153.213 140.848L151.253 146H149.573L146.829 138.524H148.481L150.455 144.04L152.513 138.524H153.983L155.999 144.068L158.029 138.524H159.583ZM165.029 138.44C165.971 138.44 166.727 138.715 167.297 139.266C167.866 139.817 168.151 140.633 168.151 141.716V146H166.401V141.94C166.401 141.287 166.247 140.797 165.939 140.47C165.631 140.134 165.192 139.966 164.623 139.966C163.979 139.966 163.47 140.162 163.097 140.554C162.723 140.937 162.537 141.492 162.537 142.22V146H160.787V135.612H162.537V139.392C162.826 139.084 163.181 138.851 163.601 138.692C164.03 138.524 164.506 138.44 165.029 138.44ZM177.467 142.304C177.467 142.425 177.458 142.598 177.439 142.822H171.573C171.676 143.373 171.942 143.811 172.371 144.138C172.81 144.455 173.351 144.614 173.995 144.614C174.816 144.614 175.493 144.343 176.025 143.802L176.963 144.88C176.627 145.281 176.202 145.585 175.689 145.79C175.176 145.995 174.597 146.098 173.953 146.098C173.132 146.098 172.408 145.935 171.783 145.608C171.158 145.281 170.672 144.829 170.327 144.25C169.991 143.662 169.823 142.999 169.823 142.262C169.823 141.534 169.986 140.881 170.313 140.302C170.649 139.714 171.111 139.257 171.699 138.93C172.287 138.603 172.95 138.44 173.687 138.44C174.415 138.44 175.064 138.603 175.633 138.93C176.212 139.247 176.66 139.7 176.977 140.288C177.304 140.867 177.467 141.539 177.467 142.304ZM173.687 139.84C173.127 139.84 172.651 140.008 172.259 140.344C171.876 140.671 171.643 141.109 171.559 141.66H175.801C175.726 141.119 175.498 140.68 175.115 140.344C174.732 140.008 174.256 139.84 173.687 139.84ZM180.814 139.616C181.318 138.832 182.205 138.44 183.474 138.44V140.106C183.325 140.078 183.189 140.064 183.068 140.064C182.387 140.064 181.855 140.265 181.472 140.666C181.089 141.058 180.898 141.627 180.898 142.374V146H179.148V138.524H180.814V139.616ZM191.918 142.304C191.918 142.425 191.909 142.598 191.89 142.822H186.024C186.127 143.373 186.393 143.811 186.822 144.138C187.261 144.455 187.802 144.614 188.446 144.614C189.268 144.614 189.944 144.343 190.476 143.802L191.414 144.88C191.078 145.281 190.654 145.585 190.14 145.79C189.627 145.995 189.048 146.098 188.404 146.098C187.583 146.098 186.86 145.935 186.234 145.608C185.609 145.281 185.124 144.829 184.778 144.25C184.442 143.662 184.274 142.999 184.274 142.262C184.274 141.534 184.438 140.881 184.764 140.302C185.1 139.714 185.562 139.257 186.15 138.93C186.738 138.603 187.401 138.44 188.138 138.44C188.866 138.44 189.515 138.603 190.084 138.93C190.663 139.247 191.111 139.7 191.428 140.288C191.755 140.867 191.918 141.539 191.918 142.304ZM188.138 139.84C187.578 139.84 187.102 140.008 186.71 140.344C186.328 140.671 186.094 141.109 186.01 141.66H190.252C190.178 141.119 189.949 140.68 189.566 140.344C189.184 140.008 188.708 139.84 188.138 139.84Z" fill="white"/>
</svg>
