<svg width="37" height="30" viewBox="0 0 37 30" fill="none" xmlns="http://www.w3.org/2000/svg">
<path d="M26.8987 8.51356C26.1269 7.89607 24.9691 7.97325 24.313 8.78371C23.6569 9.59417 23.8113 10.752 24.6217 11.4081C25.6638 12.2571 26.3198 13.5693 26.3198 14.9972C26.3198 16.541 25.5866 17.8917 24.4288 18.7408C23.6955 19.2811 23.5797 20.3617 24.1586 21.0564L24.313 21.2108C24.9305 21.944 26.0883 22.0984 26.8216 21.5195C28.7512 20.0144 29.9862 17.6216 29.9862 14.9972C29.9862 12.3729 28.7898 10.0573 26.8987 8.51356Z" fill="#454545"/>
<path d="M31.1053 3.34189C30.3334 2.72439 29.2142 2.87877 28.5581 3.61204C27.9407 4.38391 28.0178 5.54171 28.7897 6.1592C31.3369 8.28184 32.9964 11.4465 32.9964 14.9971C32.9964 18.5477 31.3369 21.7509 28.7897 23.835C28.0178 24.4525 27.9407 25.6103 28.5581 26.3821C29.1756 27.154 30.3334 27.3084 31.1053 26.6909C34.5015 23.9507 36.7013 19.7441 36.7013 15.0357C36.6628 10.2887 34.5015 6.08201 31.1053 3.34189Z" fill="#454545"/>
<path d="M16.132 0.524566L6.75384 7.74153H2.16123C0.964834 7.74153 0 8.70636 0 9.90275V20.0914C0 21.2878 0.964834 22.2526 2.16123 22.2526H6.75384L16.1706 29.4696C17.8301 30.7432 20.1843 29.5854 20.1843 27.4627V2.49283C20.1843 0.447379 17.7915 -0.749015 16.132 0.524566Z" fill="#454545"/>
</svg>
